  0
SECTION
  2
HEADER
  9
$ACADVER
  1
AC1027
  9
$ACADMAINTVER
 70
   125
  9
$DWGCODEPAGE
  3
ANSI_1252
  9
$REQUIREDVERSIONS
160
                 0
  9
$INSBASE
 10
0.0
 20
0.0
 30
0.0
  9
$EXTMIN
 10
1.000000000000000E+20
 20
1.000000000000000E+20
 30
1.000000000000000E+20
  9
$EXTMAX
 10
-1.000000000000000E+20
 20
-1.000000000000000E+20
 30
-1.000000000000000E+20
  9
$LIMMIN
 10
0.0
 20
0.0
  9
$LIMMAX
 10
12.0
 20
9.0
  9
$ORTHOMODE
 70
     0
  9
$REGENMODE
 70
     1
  9
$FILLMODE
 70
     1
  9
$QTEXTMODE
 70
     0
  9
$MIRRTEXT
 70
     0
  9
$LTSCALE
 40
1.0
  9
$ATTMODE
 70
     1
  9
$TEXTSIZE
 40
0.2
  9
$TRACEWID
 40
0.05
  9
$TEXTSTYLE
  7
Standard
  9
$CLAYER
  8
0
  9
$CELTYPE
  6
ByLayer
  9
$CECOLOR
 62
   256
  9
$CELTSCALE
 40
1.0
  9
$DISPSILH
 70
     0
  9
$DIMSCALE
 40
1.0
  9
$DIMASZ
 40
0.18
  9
$DIMEXO
 40
0.0625
  9
$DIMDLI
 40
0.38
  9
$DIMRND
 40
0.0
  9
$DIMDLE
 40
0.0
  9
$DIMEXE
 40
0.18
  9
$DIMTP
 40
0.0
  9
$DIMTM
 40
0.0
  9
$DIMTXT
 40
0.18
  9
$DIMCEN
 40
0.09
  9
$DIMTSZ
 40
0.0
  9
$DIMTOL
 70
     0
  9
$DIMLIM
 70
     0
  9
$DIMTIH
 70
     1
  9
$DIMTOH
 70
     1
  9
$DIMSE1
 70
     0
  9
$DIMSE2
 70
     0
  9
$DIMTAD
 70
     0
  9
$DIMZIN
 70
     0
  9
$DIMBLK
  1

  9
$DIMASO
 70
     1
  9
$DIMSHO
 70
     1
  9
$DIMPOST
  1

  9
$DIMAPOST
  1

  9
$DIMALT
 70
     0
  9
$DIMALTD
 70
     2
  9
$DIMALTF
 40
25.4
  9
$DIMLFAC
 40
1.0
  9
$DIMTOFL
 70
     0
  9
$DIMTVP
 40
0.0
  9
$DIMTIX
 70
     0
  9
$DIMSOXD
 70
     0
  9
$DIMSAH
 70
     0
  9
$DIMBLK1
  1

  9
$DIMBLK2
  1

  9
$DIMSTYLE
  2
Standard
  9
$DIMCLRD
 70
     0
  9
$DIMCLRE
 70
     0
  9
$DIMCLRT
 70
     0
  9
$DIMTFAC
 40
1.0
  9
$DIMGAP
 40
0.09
  9
$DIMJUST
 70
     0
  9
$DIMSD1
 70
     0
  9
$DIMSD2
 70
     0
  9
$DIMTOLJ
 70
     1
  9
$DIMTZIN
 70
     0
  9
$DIMALTZ
 70
     0
  9
$DIMALTTZ
 70
     0
  9
$DIMUPT
 70
     0
  9
$DIMDEC
 70
     4
  9
$DIMTDEC
 70
     4
  9
$DIMALTU
 70
     2
  9
$DIMALTTD
 70
     2
  9
$DIMTXSTY
  7
Standard
  9
$DIMAUNIT
 70
     0
  9
$DIMADEC
 70
     0
  9
$DIMALTRND
 40
0.0
  9
$DIMAZIN
 70
     0
  9
$DIMDSEP
 70
    46
  9
$DIMATFIT
 70
     3
  9
$DIMFRAC
 70
     0
  9
$DIMLDRBLK
  1

  9
$DIMLUNIT
 70
     2
  9
$DIMLWD
 70
    -2
  9
$DIMLWE
 70
    -2
  9
$DIMTMOVE
 70
     0
  9
$DIMFXL
 40
1.0
  9
$DIMFXLON
 70
     0
  9
$DIMJOGANG
 40
0.7853981633974483
  9
$DIMTFILL
 70
     0
  9
$DIMTFILLCLR
 70
     0
  9
$DIMARCSYM
 70
     0
  9
$DIMLTYPE
  6

  9
$DIMLTEX1
  6

  9
$DIMLTEX2
  6

  9
$DIMTXTDIRECTION
 70
     0
  9
$LUNITS
 70
     2
  9
$LUPREC
 70
     4
  9
$SKETCHINC
 40
0.1
  9
$FILLETRAD
 40
0.0
  9
$AUNITS
 70
     0
  9
$AUPREC
 70
     0
  9
$MENU
  1
.
  9
$ELEVATION
 40
0.0
  9
$PELEVATION
 40
0.0
  9
$THICKNESS
 40
0.0
  9
$LIMCHECK
 70
     0
  9
$CHAMFERA
 40
0.0
  9
$CHAMFERB
 40
0.0
  9
$CHAMFERC
 40
0.0
  9
$CHAMFERD
 40
0.0
  9
$SKPOLY
 70
     0
  9
$TDCREATE
 40
2459891.109120370
  9
$TDUCREATE
 40
2459891.109120370
  9
$TDUPDATE
 40
2459891.109120370
  9
$TDUUPDATE
 40
2459891.109120370
  9
$TDINDWG
 40
0.0000000000
  9
$TDUSRTIMER
 40
0.0000000000
  9
$USRTIMER
 70
     1
  9
$ANGBASE
 50
0.0
  9
$ANGDIR
 70
     0
  9
$PDMODE
 70
     0
  9
$PDSIZE
 40
0.0
  9
$PLINEWID
 40
0.0
  9
$SPLFRAME
 70
     0
  9
$SPLINETYPE
 70
     6
  9
$SPLINESEGS
 70
     8
  9
$HANDSEED
  5
117
  9
$SURFTAB1
 70
     6
  9
$SURFTAB2
 70
     6
  9
$SURFTYPE
 70
     6
  9
$SURFU
 70
     6
  9
$SURFV
 70
     6
  9
$UCSBASE
  2

  9
$UCSNAME
  2

  9
$UCSORG
 10
0.0
 20
0.0
 30
0.0
  9
$UCSXDIR
 10
1.0
 20
0.0
 30
0.0
  9
$UCSYDIR
 10
0.0
 20
1.0
 30
0.0
  9
$UCSORTHOREF
  2

  9
$UCSORTHOVIEW
 70
     0
  9
$UCSORGTOP
 10
0.0
 20
0.0
 30
0.0
  9
$UCSORGBOTTOM
 10
0.0
 20
0.0
 30
0.0
  9
$UCSORGLEFT
 10
0.0
 20
0.0
 30
0.0
  9
$UCSORGRIGHT
 10
0.0
 20
0.0
 30
0.0
  9
$UCSORGFRONT
 10
0.0
 20
0.0
 30
0.0
  9
$UCSORGBACK
 10
0.0
 20
0.0
 30
0.0
  9
$PUCSBASE
  2

  9
$PUCSNAME
  2

  9
$PUCSORG
 10
0.0
 20
0.0
 30
0.0
  9
$PUCSXDIR
 10
1.0
 20
0.0
 30
0.0
  9
$PUCSYDIR
 10
0.0
 20
1.0
 30
0.0
  9
$PUCSORTHOREF
  2

  9
$PUCSORTHOVIEW
 70
     0
  9
$PUCSORGTOP
 10
0.0
 20
0.0
 30
0.0
  9
$PUCSORGBOTTOM
 10
0.0
 20
0.0
 30
0.0
  9
$PUCSORGLEFT
 10
0.0
 20
0.0
 30
0.0
  9
$PUCSORGRIGHT
 10
0.0
 20
0.0
 30
0.0
  9
$PUCSORGFRONT
 10
0.0
 20
0.0
 30
0.0
  9
$PUCSORGBACK
 10
0.0
 20
0.0
 30
0.0
  9
$USERI1
 70
     0
  9
$USERI2
 70
     0
  9
$USERI3
 70
     0
  9
$USERI4
 70
     0
  9
$USERI5
 70
     0
  9
$USERR1
 40
0.0
  9
$USERR2
 40
0.0
  9
$USERR3
 40
0.0
  9
$USERR4
 40
0.0
  9
$USERR5
 40
0.0
  9
$WORLDVIEW
 70
     1
  9
$SHADEDGE
 70
     3
  9
$SHADEDIF
 70
    70
  9
$TILEMODE
 70
     1
  9
$MAXACTVP
 70
    64
  9
$PINSBASE
 10
0.0
 20
0.0
 30
0.0
  9
$PLIMCHECK
 70
     0
  9
$PEXTMIN
 10
1.000000000000000E+20
 20
1.000000000000000E+20
 30
1.000000000000000E+20
  9
$PEXTMAX
 10
-1.000000000000000E+20
 20
-1.000000000000000E+20
 30
-1.000000000000000E+20
  9
$PLIMMIN
 10
0.0
 20
0.0
  9
$PLIMMAX
 10
12.0
 20
9.0
  9
$UNITMODE
 70
     0
  9
$VISRETAIN
 70
     1
  9
$PLINEGEN
 70
     0
  9
$PSLTSCALE
 70
     1
  9
$TREEDEPTH
 70
  3020
  9
$CMLSTYLE
  2
Standard
  9
$CMLJUST
 70
     0
  9
$CMLSCALE
 40
1.0
  9
$PROXYGRAPHICS
 70
     1
  9
$MEASUREMENT
 70
     0
  9
$CELWEIGHT
370
    -1
  9
$ENDCAPS
280
     0
  9
$JOINSTYLE
280
     0
  9
$LWDISPLAY
290
     0
  9
$INSUNITS
 70
     5
  9
$HYPERLINKBASE
  1

  9
$STYLESHEET
  1

  9
$XEDIT
290
     1
  9
$CEPSNTYPE
380
     0
  9
$PSTYLEMODE
290
     1
  9
$FINGERPRINTGUID
  2
{B3BF33E9-491C-AE42-A852-CA4865C6BCA3}
  9
$VERSIONGUID
  2
{064DE0BD-D3A3-1E4D-B8F0-374B7EC0A7AA}
  9
$EXTNAMES
290
     1
  9
$PSVPSCALE
 40
0.0
  9
$OLESTARTUP
290
     0
  9
$SORTENTS
280
   127
  9
$INDEXCTL
280
     0
  9
$HIDETEXT
280
     1
  9
$XCLIPFRAME
280
     2
  9
$HALOGAP
280
     0
  9
$OBSCOLOR
 70
   257
  9
$OBSLTYPE
280
     0
  9
$INTERSECTIONDISPLAY
280
     0
  9
$INTERSECTIONCOLOR
 70
   257
  9
$DIMASSOC
280
     2
  9
$PROJECTNAME
  1

  9
$CAMERADISPLAY
290
     0
  9
$LENSLENGTH
 40
50.0
  9
$CAMERAHEIGHT
 40
0.0
  9
$STEPSPERSEC
 40
2.0
  9
$STEPSIZE
 40
6.0
  9
$3DDWFPREC
 40
2.0
  9
$PSOLWIDTH
 40
0.25
  9
$PSOLHEIGHT
 40
4.0
  9
$LOFTANG1
 40
1.570796326794896
  9
$LOFTANG2
 40
1.570796326794896
  9
$LOFTMAG1
 40
0.0
  9
$LOFTMAG2
 40
0.0
  9
$LOFTPARAM
 70
     7
  9
$LOFTNORMALS
280
     1
  9
$LATITUDE
 40
37.795
  9
$LONGITUDE
 40
-122.394
  9
$NORTHDIRECTION
 40
0.0
  9
$TIMEZONE
 70
 -8000
  9
$LIGHTGLYPHDISPLAY
280
     1
  9
$TILEMODELIGHTSYNCH
280
     1
  9
$CMATERIAL
347
11
  9
$SOLIDHIST
280
     0
  9
$SHOWHIST
280
     1
  9
$DWFFRAME
280
     2
  9
$DGNFRAME
280
     0
  9
$REALWORLDSCALE
290
     1
  9
$INTERFERECOLOR
 62
     1
  9
$INTERFEREOBJVS
345
33
  9
$INTERFEREVPVS
346
30
  9
$CSHADOW
280
     0
  9
$SHADOWPLANELOCATION
 40
0.0
  0
ENDSEC
  0
SECTION
  2
CLASSES
  0
CLASS
  1
ACDBDICTIONARYWDFLT
  2
AcDbDictionaryWithDefault
  3
ObjectDBX Classes
 90
        0
 91
        1
280
     0
281
     0
  0
CLASS
  1
MATERIAL
  2
AcDbMaterial
  3
ObjectDBX Classes
 90
     1153
 91
        3
280
     0
281
     0
  0
CLASS
  1
VISUALSTYLE
  2
AcDbVisualStyle
  3
ObjectDBX Classes
 90
     4095
 91
       24
280
     0
281
     0
  0
CLASS
  1
SCALE
  2
AcDbScale
  3
ObjectDBX Classes
 90
     1153
 91
       17
280
     0
281
     0
  0
CLASS
  1
TABLESTYLE
  2
AcDbTableStyle
  3
ObjectDBX Classes
 90
     4095
 91
        1
280
     0
281
     0
  0
CLASS
  1
MLEADERSTYLE
  2
AcDbMLeaderStyle
  3
ACDB_MLEADERSTYLE_CLASS
 90
     4095
 91
        1
280
     0
281
     0
  0
CLASS
  1
ACDBSECTIONVIEWSTYLE
  2
AcDbSectionViewStyle
  3
ObjectDBX Classes
 90
     1025
 91
        1
280
     0
281
     0
  0
CLASS
  1
ACDBDETAILVIEWSTYLE
  2
AcDbDetailViewStyle
  3
ObjectDBX Classes
 90
     1025
 91
        1
280
     0
281
     0
  0
CLASS
  1
DICTIONARYVAR
  2
AcDbDictionaryVar
  3
ObjectDBX Classes
 90
        0
 91
        5
280
     0
281
     0
  0
CLASS
  1
CELLSTYLEMAP
  2
AcDbCellStyleMap
  3
ObjectDBX Classes
 90
     1152
 91
        1
280
     0
281
     0
  0
ENDSEC
  0
SECTION
  2
TABLES
  0
TABLE
  2
VPORT
  5
8
330
0
100
AcDbSymbolTable
 70
     1
1001
ACAD
1000
DbSaveVer
1071
      267
  0
VPORT
  5
57
330
8
100
AcDbSymbolTableRecord
100
AcDbViewportTableRecord
  2
*Active
 70
     0
 10
0.0
 20
0.0
 11
1.0
 21
1.0
 12
500.0
 22
500.0
 13
0.0
 23
0.0
 14
1.0
 24
1.0
 15
0.0
 25
0.0
 16
0.0
 26
0.0
 36
1.0
 17
0.0
 27
0.0
 37
0.0
 40
12.0
 41
1.0
 42
50.0
 43
0.0
 44
0.0
 50
0.0
 51
0.0
 71
     0
 72
   100
 73
     1
 74
     1
 75
     0
 76
     0
 77
     0
 78
     0
281
     0
 65
     1
110
0.0
120
0.0
130
0.0
111
1.0
121
0.0
131
0.0
112
0.0
122
1.0
132
0.0
 79
     0
146
0.0
 60
     3
 61
     5
292
     1
282
     1
141
0.0
142
0.0
 63
   250
421
  3355443
  0
ENDTAB
  0
TABLE
  2
LTYPE
  5
5
330
0
100
AcDbSymbolTable
 70
     1
  0
LTYPE
  5
5B
330
5
100
AcDbSymbolTableRecord
100
AcDbLinetypeTableRecord
  2
ByBlock
 70
     0
  3

 72
    65
 73
     0
 40
0.0
  0
LTYPE
  5
5C
330
5
100
AcDbSymbolTableRecord
100
AcDbLinetypeTableRecord
  2
ByLayer
 70
     0
  3

 72
    65
 73
     0
 40
0.0
  0
LTYPE
  5
5D
330
5
100
AcDbSymbolTableRecord
100
AcDbLinetypeTableRecord
  2
Continuous
 70
     0
  3
Solid line
 72
    65
 73
     0
 40
0.0
  0
ENDTAB
  0
TABLE
  2
LAYER
  5
2
330
0
100
AcDbSymbolTable
 70
     2
  0
LAYER
  5
54
330
2
100
AcDbSymbolTableRecord
100
AcDbLayerTableRecord
  2
0
 70
     0
 62
     7
  6
Continuous
370
    -3
390
F
347
21
348
0
  0
LAYER
  5
7A
330
2
100
AcDbSymbolTableRecord
100
AcDbLayerTableRecord
  2
cutter-1 v5_Sketch1
 70
     0
 62
     7
  6
Continuous
370
    -3
390
F
347
21
348
0
1001
NFusion_SketchTransform
1000
1.000000;0.000000;0.000000;0.000000;0.000000;1.000000;0.000000;0.000000;0.000000;0.000000;1.000000;0.000000;0.000000;0.000000;0.000000;1.000000
  0
ENDTAB
  0
TABLE
  2
STYLE
  5
3
330
0
100
AcDbSymbolTable
 70
     2
  0
STYLE
  5
55
330
3
100
AcDbSymbolTableRecord
100
AcDbTextStyleTableRecord
  2
Standard
 70
     0
 40
0.0
 41
1.0
 50
0.0
 71
     0
 42
0.2
  3
txt
  4

  0
STYLE
  5
5A
330
3
100
AcDbSymbolTableRecord
100
AcDbTextStyleTableRecord
  2
Annotative
 70
     0
 40
0.0
 41
1.0
 50
0.0
 71
     0
 42
0.2
  3
txt
  4

1001
AcadAnnotative
1000
AnnotativeData
1002
{
1070
     1
1070
     1
1002
}
  0
ENDTAB
  0
TABLE
  2
VIEW
  5
6
330
0
100
AcDbSymbolTable
 70
     0
  0
ENDTAB
  0
TABLE
  2
UCS
  5
7
330
0
100
AcDbSymbolTable
 70
     0
  0
ENDTAB
  0
TABLE
  2
APPID
  5
9
330
0
100
AcDbSymbolTable
 70
     4
  0
APPID
  5
56
330
9
100
AcDbSymbolTableRecord
100
AcDbRegAppTableRecord
  2
ACAD
 70
     0
  0
APPID
  5
5E
330
9
100
AcDbSymbolTableRecord
100
AcDbRegAppTableRecord
  2
AcadAnnotative
 70
     0
  0
APPID
  5
78
330
9
100
AcDbSymbolTableRecord
100
AcDbRegAppTableRecord
  2
EDIT_IN_FUSION_ACAD_ADDIN
 70
     0
  0
APPID
  5
79
330
9
100
AcDbSymbolTableRecord
100
AcDbRegAppTableRecord
  2
NFusion_SketchTransform
 70
     0
  0
ENDTAB
  0
TABLE
  2
DIMSTYLE
  5
A
330
0
100
AcDbSymbolTable
 70
     2
100
AcDbDimStyleTable
 71
     0
  0
DIMSTYLE
105
58
330
A
100
AcDbSymbolTableRecord
100
AcDbDimStyleTableRecord
  2
Standard
 70
     0
340
55
  0
DIMSTYLE
105
59
330
A
100
AcDbSymbolTableRecord
100
AcDbDimStyleTableRecord
  2
Annotative
 70
     0
340
55
1001
AcadAnnotative
1000
AnnotativeData
1002
{
1070
     1
1070
     1
1002
}
  0
ENDTAB
  0
TABLE
  2
BLOCK_RECORD
  5
1
330
0
100
AcDbSymbolTable
 70
     1
  0
BLOCK_RECORD
  5
70
330
1
100
AcDbSymbolTableRecord
100
AcDbBlockTableRecord
  2
*Model_Space
340
73
 70
     0
280
     1
281
     0
  0
BLOCK_RECORD
  5
6C
330
1
100
AcDbSymbolTableRecord
100
AcDbBlockTableRecord
  2
*Paper_Space
340
6F
 70
     0
280
     1
281
     0
  0
BLOCK_RECORD
  5
74
330
1
100
AcDbSymbolTableRecord
100
AcDbBlockTableRecord
  2
*Paper_Space0
340
77
 70
     0
280
     1
281
     0
  0
ENDTAB
  0
ENDSEC
  0
SECTION
  2
BLOCKS
  0
BLOCK
  5
71
330
70
100
AcDbEntity
  8
0
100
AcDbBlockBegin
  2
*Model_Space
 70
     0
 10
0.0
 20
0.0
 30
0.0
  3
*Model_Space
  1

  0
ENDBLK
  5
72
330
70
100
AcDbEntity
  8
0
100
AcDbBlockEnd
  0
BLOCK
  5
6D
330
6C
100
AcDbEntity
 67
     1
  8
0
100
AcDbBlockBegin
  2
*Paper_Space
 70
     0
 10
0.0
 20
0.0
 30
0.0
  3
*Paper_Space
  1

  0
ENDBLK
  5
6E
330
6C
100
AcDbEntity
 67
     1
  8
0
100
AcDbBlockEnd
  0
BLOCK
  5
75
330
74
100
AcDbEntity
 67
     1
  8
0
100
AcDbBlockBegin
  2
*Paper_Space0
 70
     0
 10
0.0
 20
0.0
 30
0.0
  3
*Paper_Space0
  1

  0
ENDBLK
  5
76
330
74
100
AcDbEntity
 67
     1
  8
0
100
AcDbBlockEnd
  0
ENDSEC
  0
SECTION
  2
ENTITIES
  0
POINT
  5
7B
330
70
100
AcDbEntity
  8
cutter-1 v5_Sketch1
100
AcDbPoint
 10
0.0
 20
0.0
 30
0.0
  0
LINE
  5
7C
330
70
100
AcDbEntity
  8
cutter-1 v5_Sketch1
100
AcDbLine
 10
-10.0
 20
14.0
 30
0.0
 11
12.5
 21
14.0
 31
0.0
  0
LINE
  5
7D
330
70
100
AcDbEntity
  8
cutter-1 v5_Sketch1
100
AcDbLine
 10
8.0
 20
-1.0
 30
0.0
 11
9.611605966122219
 21
-1.0
 31
0.0
  0
LINE
  5
7E
330
70
100
AcDbEntity
  8
cutter-1 v5_Sketch1
100
AcDbLine
 10
-9.0
 20
-14.0
 30
0.0
 11
-9.0
 21
-2.0
 31
0.0
  0
LINE
  5
7F
330
70
100
AcDbEntity
  8
cutter-1 v5_Sketch1
100
AcDbLine
 10
-3.005782829436476
 20
2.081087705885588
 30
0.0
 11
-5.005782829436476
 21
2.081087705885588
 31
0.0
  0
SPLINE
  5
80
330
70
100
AcDbEntity
  8
cutter-1 v5_Sketch1
100
AcDbSpline
210
0.0
220
0.0
230
1.0
 70
    12
 71
     5
 72
    21
 73
    15
 74
     0
 42
0.000000001
 43
0.0000000001
 40
0.0
 40
0.0
 40
0.0
 40
0.0
 40
0.0
 40
0.0
 40
0.1
 40
0.2
 40
0.3
 40
0.4
 40
0.5
 40
0.6
 40
0.7
 40
0.8
 40
0.9
 40
1.0
 40
1.0
 40
1.0
 40
1.0
 40
1.0
 40
1.0
 10
5.634404278235526
 20
11.9016983461355
 30
0.0
 41
1.0
 10
5.747202479098251
 20
11.78407050224759
 30
0.0
 41
1.0
 10
5.958588805403081
 20
11.53690449587908
 30
0.0
 41
1.0
 10
6.233043065314234
 20
11.13042871859619
 30
0.0
 41
1.0
 10
6.512285381064424
 20
10.51579530075643
 30
0.0
 41
1.0
 10
6.709212080049303
 20
9.619997417228189
 30
0.0
 41
1.0
 10
6.746242936817606
 20
8.590181214575189
 30
0.0
 41
1.0
 10
6.623058297210955
 20
7.426078771426666
 30
0.0
 41
1.0
 10
6.351617430673884
 20
6.137713870556532
 30
0.0
 41
1.0
 10
5.947598269849546
 20
4.738227129951141
 30
0.0
 41
1.0
 10
5.426607558970785
 20
3.240699500310228
 30
0.0
 41
1.0
 10
4.926099773029816
 20
1.972510639638378
 30
0.0
 41
1.0
 10
4.507056387107983
 20
0.9847727887231293
 30
0.0
 41
1.0
 10
4.208603791950811
 20
0.3102801281292918
 30
0.0
 41
1.0
 10
4.054604838889545
 20
-0.0309664516843906
 30
0.0
 41
1.0
  0
LINE
  5
81
330
70
100
AcDbEntity
  8
cutter-1 v5_Sketch1
100
AcDbLine
 10
2.749289265670165
 20
8.951314967895074
 30
0.0
 11
2.52569292748528
 21
8.205993843634628
 31
0.0
  0
LINE
  5
82
330
70
100
AcDbEntity
  8
cutter-1 v5_Sketch1
100
AcDbLine
 10
8.0
 20
-2.0
 30
0.0
 11
8.0
 21
-1.0
 31
0.0
  0
LINE
  5
83
330
70
100
AcDbEntity
  8
cutter-1 v5_Sketch1
100
AcDbLine
 10
2.0
 20
-15.0
 30
0.0
 11
2.0
 21
-14.0
 31
0.0
  0
LINE
  5
84
330
70
100
AcDbEntity
  8
cutter-1 v5_Sketch1
100
AcDbLine
 10
-5.005782829436476
 20
2.326087705885588
 30
0.0
 11
-3.005782829436476
 21
2.326087705885588
 31
0.0
  0
SPLINE
  5
85
330
70
100
AcDbEntity
  8
cutter-1 v5_Sketch1
100
AcDbSpline
210
0.0
220
0.0
230
1.0
 70
    12
 71
     5
 72
    26
 73
    20
 74
     0
 42
0.000000001
 43
0.0000000001
 40
0.0
 40
0.0
 40
0.0
 40
0.0
 40
0.0
 40
0.0
 40
0.0666666666666667
 40
0.1333333333333333
 40
0.2
 40
0.2666666666666666
 40
0.3333333333333333
 40
0.4
 40
0.4666666666666666
 40
0.5333333333333333
 40
0.6
 40
0.6666666666666666
 40
0.7333333333333333
 40
0.8
 40
0.8666666666666666
 40
0.9333333333333332
 40
1.0
 40
1.0
 40
1.0
 40
1.0
 40
1.0
 40
1.0
 10
-5.0
 20
12.0
 30
0.0
 41
1.0
 10
-5.077640553769262
 20
11.88221803788485
 30
0.0
 41
1.0
 10
-5.214638448570004
 20
11.6411358245029
 30
0.0
 41
1.0
 10
-5.365284113510788
 20
11.26295719848448
 30
0.0
 41
1.0
 10
-5.455658346804612
 20
10.72537147905941
 30
0.0
 41
1.0
 10
-5.38302025686021
 20
9.99729635176221
 30
0.0
 41
1.0
 10
-5.129156894879942
 20
9.214226774364361
 30
0.0
 41
1.0
 10
-4.709338284225093
 20
8.380327210086802
 30
0.0
 41
1.0
 10
-4.157587274559956
 20
7.505098026245617
 30
0.0
 41
1.0
 10
-3.52283214342936
 20
6.602280419985619
 30
0.0
 41
1.0
 10
-2.861712923625633
 20
5.687806354395429
 30
0.0
 41
1.0
 10
-2.233237391428327
 20
4.778287160699807
 30
0.0
 41
1.0
 10
-1.692600850468519
 20
3.889276737214257
 30
0.0
 41
1.0
 10
-1.286026002040071
 20
3.033827890539453
 30
0.0
 41
1.0
 10
-1.042765701310184
 20
2.220275848691919
 30
0.0
 41
1.0
 10
-0.9754164306464058
 20
1.452313442124063
 30
0.0
 41
1.0
 10
-1.064827286807767
 20
0.8752480667128276
 30
0.0
 41
1.0
 10
-1.211696300840168
 20
0.4632569438407571
 30
0.0
 41
1.0
 10
-1.344829278112874
 20
0.1977787434294683
 30
0.0
 41
1.0
 10
-1.420200560654006
 20
0.0673352021800182
 30
0.0
 41
1.0
  0
SPLINE
  5
86
330
70
100
AcDbEntity
  8
cutter-1 v5_Sketch1
100
AcDbSpline
210
0.0
220
0.0
230
1.0
 70
    12
 71
     5
 72
    21
 73
    15
 74
     0
 42
0.000000001
 43
0.0000000001
 40
0.0
 40
0.0
 40
0.0
 40
0.0
 40
0.0
 40
0.0
 40
0.1
 40
0.2
 40
0.3
 40
0.4
 40
0.5
 40
0.6
 40
0.7
 40
0.8
 40
0.9
 40
1.0
 40
1.0
 40
1.0
 40
1.0
 40
1.0
 40
1.0
 10
-9.0
 20
12.0
 30
0.0
 41
1.0
 10
-8.902460406162411
 20
11.94558581046349
 30
0.0
 41
1.0
 10
-8.710749397542318
 20
11.83755816497389
 30
0.0
 41
1.0
 10
-8.433287287807642
 20
11.67791886564053
 30
0.0
 41
1.0
 10
-8.083880165607093
 20
11.46995010104468
 30
0.0
 41
1.0
 10
-7.684134590207099
 20
11.21878850357122
 30
0.0
 41
1.0
 10
-7.326019612227329
 20
10.97752395042775
 30
0.0
 41
1.0
 10
-7.015593124038111
 20
10.74759661381651
 30
0.0
 41
1.0
 10
-6.759318267075285
 20
10.53054300777047
 30
0.0
 41
1.0
 10
-6.562866496794099
 20
10.32771143496582
 30
0.0
 41
1.0
 10
-6.428193103989164
 20
10.13956673618737
 30
0.0
 41
1.0
 10
-6.368096200808784
 20
10.00037709652847
 30
0.0
 41
1.0
 10
-6.34862066265571
 20
9.902070199138892
 30
0.0
 41
1.0
 10
-6.346820473815422
 20
9.839190976146738
 30
0.0
 41
1.0
 10
-6.34871677054638
 20
9.808416164314149
 30
0.0
 41
1.0
  0
LINE
  5
87
330
70
100
AcDbEntity
  8
cutter-1 v5_Sketch1
100
AcDbLine
 10
0.0
 20
-15.0
 30
0.0
 11
2.0
 21
-15.0
 31
0.0
  0
LINE
  5
88
330
70
100
AcDbEntity
  8
cutter-1 v5_Sketch1
100
AcDbLine
 10
-3.005782829436476
 20
2.326087705885588
 30
0.0
 11
-3.005782829436476
 21
2.081087705885588
 31
0.0
  0
LINE
  5
89
330
70
100
AcDbEntity
  8
cutter-1 v5_Sketch1
100
AcDbLine
 10
-6.800406955321548
 20
8.249493464524904
 30
0.0
 11
-6.686585485925455
 21
7.229264982236981
 31
0.0
  0
SPLINE
  5
8A
330
70
100
AcDbEntity
  8
cutter-1 v5_Sketch1
100
AcDbSpline
210
0.0
220
0.0
230
1.0
 70
    12
 71
     5
 72
    26
 73
    20
 74
     0
 42
0.000000001
 43
0.0000000001
 40
0.0
 40
0.0
 40
0.0
 40
0.0
 40
0.0
 40
0.0
 40
0.0666666666666667
 40
0.1333333333333333
 40
0.2
 40
0.2666666666666666
 40
0.3333333333333333
 40
0.4
 40
0.4666666666666666
 40
0.5333333333333333
 40
0.6
 40
0.6666666666666666
 40
0.7333333333333333
 40
0.8
 40
0.8666666666666666
 40
0.9333333333333332
 40
1.0
 40
1.0
 40
1.0
 40
1.0
 40
1.0
 40
1.0
 10
0.5777423285856856
 20
-0.0309664516843911
 30
0.0
 41
1.0
 10
0.5116090974971052
 20
0.1008122010013596
 30
0.0
 41
1.0
 10
0.3984418444847944
 20
0.3701554494831347
 30
0.0
 41
1.0
 10
0.2859890917323163
 20
0.7915283426029657
 30
0.0
 41
1.0
 10
0.2514771978384599
 20
1.388325674257713
 30
0.0
 41
1.0
 10
0.4029431997270077
 20
2.193042790314051
 30
0.0
 41
1.0
 10
0.7467457935441938
 20
3.055081492889575
 30
0.0
 41
1.0
 10
1.271272004745558
 20
3.969497611659912
 30
0.0
 41
1.0
 10
1.949149342565357
 20
4.925566427696782
 30
0.0
 41
1.0
 10
2.732605913869992
 20
5.905189545202763
 30
0.0
 41
1.0
 10
3.561410260545436
 20
6.885720024318912
 30
0.0
 41
1.0
 10
4.368683995846937
 20
7.842076936724024
 30
0.0
 41
1.0
 10
5.086916214253578
 20
8.748955998616077
 30
0.0
 41
1.0
 10
5.654198303823366
 20
9.58317925544064
 30
0.0
 41
1.0
 10
6.019848324096286
 20
10.32583176996957
 30
0.0
 41
1.0
 10
6.153186800481403
 20
10.96567394329752
 30
0.0
 41
1.0
 10
6.066310448102282
 20
11.39275717365851
 30
0.0
 41
1.0
 10
5.892347827110125
 20
11.6655625088638
 30
0.0
 41
1.0
 10
5.728384320809863
 20
11.82647900222252
 30
0.0
 41
1.0
 10
5.634404278235526
 20
11.9016983461355
 30
0.0
 41
1.0
  0
LINE
  5
8B
330
70
100
AcDbEntity
  8
cutter-1 v5_Sketch1
100
AcDbLine
 10
-6.744323646043126
 20
6.51926320233056
 30
0.0
 11
-6.747006700428659
 21
6.495110274116297
 31
0.0
  0
LINE
  5
8C
330
70
100
AcDbEntity
  8
cutter-1 v5_Sketch1
100
AcDbLine
 10
-8.0
 20
-12.0
 30
0.0
 11
-6.0
 21
-12.0
 31
0.0
  0
LINE
  5
8D
330
70
100
AcDbEntity
  8
cutter-1 v5_Sketch1
100
AcDbLine
 10
-6.0
 20
-12.0
 30
0.0
 11
-6.0
 21
-11.755
 31
0.0
  0
LINE
  5
8E
330
70
100
AcDbEntity
  8
cutter-1 v5_Sketch1
100
AcDbLine
 10
8.0
 20
-15.0
 30
0.0
 11
10.0
 21
-15.0
 31
0.0
  0
LINE
  5
8F
330
70
100
AcDbEntity
  8
cutter-1 v5_Sketch1
100
AcDbLine
 10
12.5
 20
-16.0
 30
0.0
 11
-10.0
 21
-16.0
 31
0.0
  0
LINE
  5
90
330
70
100
AcDbEntity
  8
cutter-1 v5_Sketch1
100
AcDbLine
 10
-9.0
 20
-2.0
 30
0.0
 11
-5.0
 21
-2.0
 31
0.0
  0
LINE
  5
91
330
70
100
AcDbEntity
  8
cutter-1 v5_Sketch1
100
AcDbLine
 10
-5.0
 20
-14.0
 30
0.0
 11
-9.0
 21
-14.0
 31
0.0
  0
LINE
  5
92
330
70
100
AcDbEntity
  8
cutter-1 v5_Sketch1
100
AcDbLine
 10
-1.0
 20
-2.0
 30
0.0
 11
-1.0
 21
-14.0
 31
0.0
  0
LINE
  5
93
330
70
100
AcDbEntity
  8
cutter-1 v5_Sketch1
100
AcDbLine
 10
10.0
 20
-15.0
 30
0.0
 11
10.0
 21
-14.0
 31
0.0
  0
LINE
  5
94
330
70
100
AcDbEntity
  8
cutter-1 v5_Sketch1
100
AcDbLine
 10
-1.0
 20
-14.0
 30
0.0
 11
-5.0
 21
-14.0
 31
0.0
  0
LINE
  5
95
330
70
100
AcDbEntity
  8
cutter-1 v5_Sketch1
100
AcDbLine
 10
0.0
 20
-2.0
 30
0.0
 11
0.0
 21
-1.0
 31
0.0
  0
LINE
  5
96
330
70
100
AcDbEntity
  8
cutter-1 v5_Sketch1
100
AcDbLine
 10
-5.005782829436476
 20
2.081087705885588
 30
0.0
 11
-5.005782829436476
 21
2.326087705885588
 31
0.0
  0
LINE
  5
97
330
70
100
AcDbEntity
  8
cutter-1 v5_Sketch1
100
AcDbLine
 10
-6.0
 20
-11.755
 30
0.0
 11
-8.0
 21
-11.755
 31
0.0
  0
LINE
  5
98
330
70
100
AcDbEntity
  8
cutter-1 v5_Sketch1
100
AcDbLine
 10
0.3143357968485567
 20
0.8348031350148353
 30
0.0
 11
0.0546048388895788
 21
-0.0309664516843915
 31
0.0
  0
LINE
  5
99
330
70
100
AcDbEntity
  8
cutter-1 v5_Sketch1
100
AcDbLine
 10
0.0546048388895788
 20
-0.0309664516843915
 30
0.0
 11
4.054604838889545
 21
-0.0309664516843906
 31
0.0
  0
SPLINE
  5
9A
330
70
100
AcDbEntity
  8
cutter-1 v5_Sketch1
100
AcDbSpline
210
0.0
220
0.0
230
1.0
 70
    12
 71
     5
 72
    19
 73
    13
 74
     0
 42
0.000000001
 43
0.0000000001
 40
0.0
 40
0.0
 40
0.0
 40
0.0
 40
0.0
 40
0.0
 40
0.1
 40
0.2
 40
0.3
 40
0.4
 40
0.5
 40
0.6
 40
0.7
 40
0.7583747464821754
 40
0.7583747464821754
 40
0.7583747464821754
 40
0.7583747464821754
 40
0.7583747464821754
 40
0.7583747464821754
 10
-9.0
 20
12.0
 30
0.0
 41
1.0
 10
-8.898842750393136
 20
11.88724372136459
 30
0.0
 41
1.0
 10
-8.701268293813662
 20
11.66177605056841
 30
0.0
 41
1.0
 10
-8.419125793587424
 20
11.32370919486566
 30
0.0
 41
1.0
 10
-8.071850177390794
 20
10.87322719593164
 30
0.0
 41
1.0
 10
-7.689377704843542
 20
10.31061353922402
 30
0.0
 41
1.0
 10
-7.363699384411562
 20
9.748537702417701
 30
0.0
 41
1.0
 10
-7.100416859336975
 20
9.187052731030117
 30
0.0
 41
1.0
 10
-6.920435188229828
 20
8.672892937613262
 30
0.0
 41
1.0
 10
-6.822661125887909
 20
8.271309976644912
 30
0.0
 41
1.0
 10
-6.773346600247246
 20
7.981984266195031
 30
0.0
 41
1.0
 10
-6.750784856173283
 20
7.804710251212137
 30
0.0
 41
1.0
 10
-6.743496220623502
 20
7.739379223380943
 30
0.0
 41
1.0
  0
LINE
  5
9B
330
70
100
AcDbEntity
  8
cutter-1 v5_Sketch1
100
AcDbLine
 10
-5.0
 20
-2.0
 30
0.0
 11
-1.0
 21
-2.0
 31
0.0
  0
LINE
  5
9C
330
70
100
AcDbEntity
  8
cutter-1 v5_Sketch1
100
AcDbLine
 10
-8.0
 20
-11.755
 30
0.0
 11
-8.0
 21
-12.0
 31
0.0
  0
LINE
  5
9D
330
70
100
AcDbEntity
  8
cutter-1 v5_Sketch1
100
AcDbLine
 10
-4.0
 20
-12.0
 30
0.0
 11
-2.0
 21
-12.0
 31
0.0
  0
LINE
  5
9E
330
70
100
AcDbEntity
  8
cutter-1 v5_Sketch1
100
AcDbLine
 10
-2.0
 20
-12.0
 30
0.0
 11
-2.0
 21
-11.755
 31
0.0
  0
LINE
  5
9F
330
70
100
AcDbEntity
  8
cutter-1 v5_Sketch1
100
AcDbLine
 10
2.0
 20
-2.0
 30
0.0
 11
8.0
 21
-2.0
 31
0.0
  0
SPLINE
  5
A0
330
70
100
AcDbEntity
  8
cutter-1 v5_Sketch1
100
AcDbSpline
210
0.0
220
0.0
230
1.0
 70
    12
 71
     5
 72
    12
 73
     6
 74
     0
 42
0.000000001
 43
0.0000000001
 40
0.9788096552184558
 40
0.9788096552184558
 40
0.9788096552184558
 40
0.9788096552184558
 40
0.9788096552184558
 40
0.9788096552184558
 40
1.0
 40
1.0
 40
1.0
 40
1.0
 40
1.0
 40
1.0
 10
-6.745665173235892
 20
6.507186738223428
 30
0.0
 41
1.0
 10
-6.748294088048639
 20
6.483521175909062
 30
0.0
 41
1.0
 10
-6.751044336544626
 20
6.459856762580404
 30
0.0
 41
1.0
 10
-6.753915830956977
 20
6.436193497406333
 30
0.0
 41
1.0
 10
-6.756908526246553
 20
6.412531379960347
 30
0.0
 41
1.0
 10
-6.760022421592197
 20
6.388870410234668
 30
0.0
 41
1.0
  0
LINE
  5
A1
330
70
100
AcDbEntity
  8
cutter-1 v5_Sketch1
100
AcDbLine
 10
2.0
 20
-1.0
 30
0.0
 11
2.0
 21
-2.0
 31
0.0
  0
LINE
  5
A2
330
70
100
AcDbEntity
  8
cutter-1 v5_Sketch1
100
AcDbLine
 10
-2.0
 20
-11.755
 30
0.0
 11
-4.0
 21
-11.755
 31
0.0
  0
LINE
  5
A3
330
70
100
AcDbEntity
  8
cutter-1 v5_Sketch1
100
AcDbLine
 10
-4.0
 20
-11.755
 30
0.0
 11
-4.0
 21
-12.0
 31
0.0
  0
LINE
  5
A4
330
70
100
AcDbEntity
  8
cutter-1 v5_Sketch1
100
AcDbLine
 10
-1.0
 20
-14.0
 30
0.0
 11
-1.0
 21
-2.0
 31
0.0
  0
SPLINE
  5
A5
330
70
100
AcDbEntity
  8
cutter-1 v5_Sketch1
100
AcDbSpline
210
0.0
220
0.0
230
1.0
 70
    12
 71
     5
 72
    21
 73
    15
 74
     0
 42
0.000000001
 43
0.0000000001
 40
0.0
 40
0.0
 40
0.0
 40
0.0
 40
0.0
 40
0.0
 40
0.1
 40
0.2
 40
0.3
 40
0.4
 40
0.5
 40
0.6
 40
0.7
 40
0.8
 40
0.9
 40
1.0
 40
1.0
 40
1.0
 40
1.0
 40
1.0
 40
1.0
 10
1.259321022559971
 20
-0.0309664516843911
 30
0.0
 41
1.0
 10
1.262386770301716
 20
0.1232350496189033
 30
0.0
 41
1.0
 10
1.276133634184269
 20
0.434780494714823
 30
0.0
 41
1.0
 10
1.319600737432191
 20
0.9115262795969893
 30
0.0
 41
1.0
 10
1.423996193591912
 20
1.566350271347068
 30
0.0
 41
1.0
 10
1.636594486477189
 20
2.418760041866713
 30
0.0
 41
1.0
 10
1.936784463162956
 20
3.307314068904472
 30
0.0
 41
1.0
 10
2.328438397306216
 20
4.233610226211823
 30
0.0
 41
1.0
 10
2.808648754334305
 20
5.196448734644565
 30
0.0
 41
1.0
 10
3.369915057176335
 20
6.192734561027008
 30
0.0
 41
1.0
 10
4.004033678004335
 20
7.219082520650338
 30
0.0
 41
1.0
 10
4.563953921064697
 20
8.061876466095577
 30
0.0
 41
1.0
 10
5.011454172329075
 20
8.705344445483053
 30
0.0
 41
1.0
 10
5.321835632784136
 20
9.139294626797846
 30
0.0
 41
1.0
 10
5.480038512716467
 20
9.357512665494072
 30
0.0
 41
1.0
  0
SPLINE
  5
A6
330
70
100
AcDbEntity
  8
cutter-1 v5_Sketch1
100
AcDbSpline
210
0.0
220
0.0
230
1.0
 70
    12
 71
     5
 72
    19
 73
    13
 74
     0
 42
0.000000001
 43
0.0000000001
 40
0.0
 40
0.0
 40
0.0
 40
0.0
 40
0.0
 40
0.0
 40
0.1
 40
0.2
 40
0.3
 40
0.4
 40
0.5
 40
0.6
 40
0.7
 40
0.7684222937958952
 40
0.7684222937958952
 40
0.7684222937958952
 40
0.7684222937958952
 40
0.7684222937958952
 40
0.7684222937958952
 10
-5.420200560654005
 20
0.0673352021800187
 30
0.0
 41
1.0
 10
-5.523121195662448
 20
0.3959470127529721
 30
0.0
 41
1.0
 10
-5.719983017316547
 20
1.045914578171404
 30
0.0
 41
1.0
 10
-5.988338527197587
 20
1.999098666169798
 30
0.0
 41
1.0
 10
-6.291375484570647
 20
3.225752274545783
 30
0.0
 41
1.0
 10
-6.572015946196211
 20
4.67975222064835
 30
0.0
 41
1.0
 10
-6.743679147131419
 20
6.045690512558075
 30
0.0
 41
1.0
 10
-6.793472804980185
 20
7.313149236420517
 30
0.0
 41
1.0
 10
-6.714586344218749
 20
8.399119247871754
 30
0.0
 41
1.0
 10
-6.557370104546771
 20
9.176348671907643
 30
0.0
 41
1.0
 10
-6.393820803534726
 20
9.703016159793206
 30
0.0
 41
1.0
 10
-6.272503850723055
 20
10.0183661398932
 30
0.0
 41
1.0
 10
-6.220173159900584
 20
10.14401774531283
 30
0.0
 41
1.0
  0
LINE
  5
A7
330
70
100
AcDbEntity
  8
cutter-1 v5_Sketch1
100
AcDbLine
 10
9.611605966122219
 20
-1.0
 30
0.0
 11
9.611605966122219
 21
-2.0
 31
0.0
  0
LINE
  5
A8
330
70
100
AcDbEntity
  8
cutter-1 v5_Sketch1
100
AcDbLine
 10
-5.0
 20
-2.0
 30
0.0
 11
-5.0
 21
-14.0
 31
0.0
  0
LINE
  5
A9
330
70
100
AcDbEntity
  8
cutter-1 v5_Sketch1
100
AcDbLine
 10
-6.625476182147432
 20
5.279056185642082
 30
0.0
 11
-6.635222542307742
 21
5.216863936242538
 31
0.0
  0
LINE
  5
AA
330
70
100
AcDbEntity
  8
cutter-1 v5_Sketch1
100
AcDbLine
 10
-10.0
 20
-16.0
 30
0.0
 11
-10.0
 21
14.0
 31
0.0
  0
LINE
  5
AB
330
70
100
AcDbEntity
  8
cutter-1 v5_Sketch1
100
AcDbLine
 10
0.0
 20
-14.0
 30
0.0
 11
-1.0
 21
-14.0
 31
0.0
  0
LINE
  5
AC
330
70
100
AcDbEntity
  8
cutter-1 v5_Sketch1
100
AcDbLine
 10
11.0
 20
-2.0
 30
0.0
 11
11.0
 21
-14.0
 31
0.0
  0
LINE
  5
AD
330
70
100
AcDbEntity
  8
cutter-1 v5_Sketch1
100
AcDbLine
 10
-1.0
 20
-2.0
 30
0.0
 11
0.0
 21
-2.0
 31
0.0
  0
LINE
  5
AE
330
70
100
AcDbEntity
  8
cutter-1 v5_Sketch1
100
AcDbLine
 10
2.011647504103941
 20
1.982786052021163
 30
0.0
 11
4.011647504103925
 21
1.982786052021163
 31
0.0
  0
SPLINE
  5
AF
330
70
100
AcDbEntity
  8
cutter-1 v5_Sketch1
100
AcDbSpline
210
0.0
220
0.0
230
1.0
 70
    12
 71
     5
 72
    21
 73
    15
 74
     0
 42
0.000000001
 43
0.0000000001
 40
0.0
 40
0.0
 40
0.0
 40
0.0
 40
0.0
 40
0.0
 40
0.1
 40
0.2
 40
0.3
 40
0.4
 40
0.5
 40
0.6
 40
0.7
 40
0.8
 40
0.9
 40
1.0
 40
1.0
 40
1.0
 40
1.0
 40
1.0
 40
1.0
 10
2.768446393385793
 20
5.935365947225552
 30
0.0
 41
1.0
 10
2.729696741966635
 20
6.031597332818883
 30
0.0
 41
1.0
 10
2.657938395582593
 20
6.224518550600016
 30
0.0
 41
1.0
 10
2.567524262229449
 20
6.515275758329241
 30
0.0
 41
1.0
 10
2.481981089523094
 20
6.905747694751263
 30
0.0
 41
1.0
 10
2.437169018818504
 20
7.398797987173886
 30
0.0
 41
1.0
 10
2.459288001081291
 20
7.897193088171268
 30
0.0
 41
1.0
 10
2.552634620795193
 20
8.401276103379766
 30
0.0
 41
1.0
 10
2.717433385345549
 20
8.911064960933803
 30
0.0
 41
1.0
 10
2.948893778892573
 20
9.426177112089584
 30
0.0
 41
1.0
 10
3.241074055159343
 20
9.946138076092056
 30
0.0
 41
1.0
 10
3.518988224724425
 20
10.36563405789285
 30
0.0
 41
1.0
 10
3.750621303730397
 20
10.68210848692499
 30
0.0
 41
1.0
 10
3.915183613396049
 20
10.89390119427896
 30
0.0
 41
1.0
 10
4.0
 20
11.0
 30
0.0
 41
1.0
  0
LINE
  5
B0
330
70
100
AcDbEntity
  8
cutter-1 v5_Sketch1
100
AcDbLine
 10
11.0
 20
-14.0
 30
0.0
 11
10.0
 21
-14.0
 31
0.0
  0
LINE
  5
B1
330
70
100
AcDbEntity
  8
cutter-1 v5_Sketch1
100
AcDbLine
 10
4.011647504103925
 20
2.227786052021158
 30
0.0
 11
2.011647504103941
 21
2.227786052021158
 31
0.0
  0
SPLINE
  5
B2
330
70
100
AcDbEntity
  8
cutter-1 v5_Sketch1
100
AcDbSpline
210
0.0
220
0.0
230
1.0
 70
    12
 71
     5
 72
    21
 73
    15
 74
     0
 42
0.000000001
 43
0.0000000001
 40
0.0
 40
0.0
 40
0.0
 40
0.0
 40
0.0
 40
0.0
 40
0.1
 40
0.2
 40
0.3
 40
0.4
 40
0.5
 40
0.6
 40
0.7
 40
0.8
 40
0.9
 40
1.0
 40
1.0
 40
1.0
 40
1.0
 40
1.0
 40
1.0
 10
4.0
 20
11.0
 30
0.0
 41
1.0
 10
3.973052688711628
 20
10.90988494109417
 30
0.0
 41
1.0
 10
3.921388224662298
 20
10.73116980207437
 30
0.0
 41
1.0
 10
3.850581584256303
 20
10.46764174466643
 30
0.0
 41
1.0
 10
3.769776591215588
 20
10.12551229995395
 30
0.0
 41
1.0
 10
3.69309283439994
 20
9.714373107905084
 30
0.0
 41
1.0
 10
3.643267548185928
 20
9.321479261570475
 30
0.0
 41
1.0
 10
3.623152599871881
 20
8.948768075456699
 30
0.0
 41
1.0
 10
3.635248215957329
 20
8.597937989414033
 30
0.0
 41
1.0
 10
3.680106907627439
 20
8.269364332242814
 30
0.0
 41
1.0
 10
3.756060645065625
 20
7.961913987276674
 30
0.0
 41
1.0
 10
3.840041336366467
 20
7.731725830050879
 30
0.0
 41
1.0
 10
3.915317531963649
 20
7.567433946025026
 30
0.0
 41
1.0
 10
3.970876706588993
 20
7.461557368258682
 30
0.0
 41
1.0
 10
4.0
 20
7.409531878270817
 30
0.0
 41
1.0
  0
SPLINE
  5
B3
330
70
100
AcDbEntity
  8
cutter-1 v5_Sketch1
100
AcDbSpline
210
0.0
220
0.0
230
1.0
 70
    12
 71
     5
 72
    12
 73
     6
 74
     0
 42
0.000000001
 43
0.0000000001
 40
0.9328666547755249
 40
0.9328666547755249
 40
0.9328666547755249
 40
0.9328666547755249
 40
0.9328666547755249
 40
0.9328666547755249
 40
1.0
 40
1.0
 40
1.0
 40
1.0
 40
1.0
 40
1.0
 10
-6.630349362227587
 20
5.24796006094231
 30
0.0
 41
1.0
 10
-6.639852511171744
 20
5.187319760410131
 30
0.0
 41
1.0
 10
-6.650905020514016
 20
5.127977703496579
 30
0.0
 41
1.0
 10
-6.663496889684457
 20
5.069925510501148
 30
0.0
 41
1.0
 10
-6.677622314083777
 20
5.013158317620685
 30
0.0
 41
1.0
 10
-6.693281398413352
 20
4.957676212586813
 30
0.0
 41
1.0
  0
LINE
  5
B4
330
70
100
AcDbEntity
  8
cutter-1 v5_Sketch1
100
AcDbLine
 10
0.0
 20
-14.0
 30
0.0
 11
0.0
 21
-15.0
 31
0.0
  0
LINE
  5
B5
330
70
100
AcDbEntity
  8
cutter-1 v5_Sketch1
100
AcDbLine
 10
12.5
 20
14.0
 30
0.0
 11
12.5
 21
-16.0
 31
0.0
  0
LINE
  5
B6
330
70
100
AcDbEntity
  8
cutter-1 v5_Sketch1
100
AcDbLine
 10
0.0
 20
-1.0
 30
0.0
 11
2.0
 21
-1.0
 31
0.0
  0
LINE
  5
B7
330
70
100
AcDbEntity
  8
cutter-1 v5_Sketch1
100
AcDbLine
 10
8.0
 20
-14.0
 30
0.0
 11
8.0
 21
-15.0
 31
0.0
  0
LINE
  5
B8
330
70
100
AcDbEntity
  8
cutter-1 v5_Sketch1
100
AcDbLine
 10
8.0
 20
-14.0
 30
0.0
 11
2.0
 21
-14.0
 31
0.0
  0
LINE
  5
B9
330
70
100
AcDbEntity
  8
cutter-1 v5_Sketch1
100
AcDbLine
 10
9.611605966122219
 20
-2.0
 30
0.0
 11
11.0
 21
-2.0
 31
0.0
  0
LINE
  5
BA
330
70
100
AcDbEntity
  8
cutter-1 v5_Sketch1
100
AcDbLine
 10
-5.0
 20
-14.0
 30
0.0
 11
-5.0
 21
-2.0
 31
0.0
  0
LINE
  5
BB
330
70
100
AcDbEntity
  8
cutter-1 v5_Sketch1
100
AcDbLine
 10
-1.420200560654006
 20
0.0673352021800182
 30
0.0
 11
-5.420200560654005
 21
0.0673352021800187
 31
0.0
  0
LINE
  5
BC
330
70
100
AcDbEntity
  8
cutter-1 v5_Sketch1
100
AcDbLine
 10
-5.420200560654005
 20
0.0673352021800187
 30
0.0
 11
-5.729527766179005
 21
1.098426469078108
 31
0.0
  0
LINE
  5
BD
330
70
100
AcDbEntity
  8
cutter-1 v5_Sketch1
100
AcDbLine
 10
-2.450626619334972
 20
-8.461061794594444
 30
0.0
 11
-2.359071903239635
 21
-9.003025513839448
 31
0.0
  0
LINE
  5
BE
330
70
100
AcDbEntity
  8
cutter-1 v5_Sketch1
100
AcDbLine
 10
-7.298152036060303
 20
-11.31627938152705
 30
0.0
 11
-6.637919739234437
 21
-12.19372061091487
 31
0.0
  0
CIRCLE
  5
BF
330
70
100
AcDbEntity
  8
cutter-1 v5_Sketch1
100
AcDbCircle
 10
2.5
 20
3.5
 30
0.0
 40
0.1000000000000001
  0
SPLINE
  5
C0
330
70
100
AcDbEntity
  8
cutter-1 v5_Sketch1
100
AcDbSpline
210
0.0
220
0.0
230
1.0
 70
    12
 71
     5
 72
    16
 73
    10
 74
     0
 42
0.000000001
 43
0.0000000001
 40
0.4653063004040691
 40
0.4653063004040691
 40
0.4653063004040691
 40
0.4653063004040691
 40
0.4653063004040691
 40
0.4653063004040691
 40
0.5
 40
0.6
 40
0.7
 40
0.8
 40
0.8121133571856983
 40
0.8121133571856983
 40
0.8121133571856983
 40
0.8121133571856983
 40
0.8121133571856983
 40
0.8121133571856983
 10
-1.000000066077797
 20
-7.600121316942637
 30
0.0
 41
1.0
 10
-1.016822495618191
 20
-7.683413609558185
 30
0.0
 41
1.0
 10
-1.087037310593565
 20
-8.006751257187014
 30
0.0
 41
1.0
 10
-1.242537301255819
 20
-8.569915346050194
 30
0.0
 41
1.0
 10
-1.546082149943785
 20
-9.372475090408112
 30
0.0
 41
1.0
 10
-1.97528414008095
 20
-10.20329426285497
 30
0.0
 41
1.0
 10
-2.449350915202803
 20
-10.95039771842007
 30
0.0
 41
1.0
 10
-2.809504038390343
 20
-11.45787124010779
 30
0.0
 41
1.0
 10
-3.010163845595302
 20
-11.72602768911558
 30
0.0
 41
1.0
 10
-3.03196411235263
 20
-11.75499999622096
 30
0.0
 41
1.0
  0
SPLINE
  5
C1
330
70
100
AcDbEntity
  8
cutter-1 v5_Sketch1
100
AcDbSpline
210
0.0
220
0.0
230
1.0
 70
    12
 71
     5
 72
    13
 73
     7
 74
     0
 42
0.000000001
 43
0.0000000001
 40
0.8326022746919191
 40
0.8326022746919191
 40
0.8326022746919191
 40
0.8326022746919191
 40
0.8326022746919191
 40
0.8326022746919191
 40
0.9
 40
1.0
 40
1.0
 40
1.0
 40
1.0
 40
1.0
 40
1.0
 10
-3.219743361702464
 20
-11.99999999071573
 30
0.0
 41
1.0
 10
-3.345514744147014
 20
-12.16116880301799
 30
0.0
 41
1.0
 10
-3.666970476146405
 20
-12.56140627085302
 30
0.0
 41
1.0
 10
-4.010595111025899
 20
-12.96149157017919
 30
0.0
 41
1.0
 10
-4.375631606690028
 20
-13.36142989737292
 30
0.0
 41
1.0
 10
-4.761784227332038
 20
-13.76122328238021
 30
0.0
 41
1.0
 10
-5.0
 20
-14.0
 30
0.0
 41
1.0
  0
CIRCLE
  5
C2
330
70
100
AcDbEntity
  8
cutter-1 v5_Sketch1
100
AcDbCircle
 10
-5.5
 20
6.0
 30
0.0
 40
0.1000000000000001
  0
CIRCLE
  5
C3
330
70
100
AcDbEntity
  8
cutter-1 v5_Sketch1
100
AcDbCircle
 10
-4.5
 20
6.0
 30
0.0
 40
0.1000000000000001
  0
LINE
  5
C4
330
70
100
AcDbEntity
  8
cutter-1 v5_Sketch1
100
AcDbLine
 10
-8.494244319549231
 20
-13.81664731953008
 30
0.0
 11
-7.505755680450768
 21
-14.18335268046992
 31
0.0
  0
SPLINE
  5
C5
330
70
100
AcDbEntity
  8
cutter-1 v5_Sketch1
100
AcDbSpline
210
0.0
220
0.0
230
1.0
 70
    12
 71
     5
 72
    42
 73
    36
 74
     0
 42
0.000000001
 43
0.0000000001
 40
0.0
 40
0.0
 40
0.0
 40
0.0
 40
0.0
 40
0.0
 40
0.0285714285714286
 40
0.0571428571428571
 40
0.0857142857142858
 40
0.1142857142857143
 40
0.1428571428571428
 40
0.1714285714285714
 40
0.2
 40
0.2285714285714286
 40
0.2571428571428572
 40
0.2857142857142858
 40
0.3142857142857143
 40
0.3428571428571429
 40
0.3714285714285715
 40
0.4000000000000001
 40
0.4285714285714287
 40
0.4571428571428572
 40
0.4857142857142859
 40
0.5142857142857144
 40
0.5428571428571429
 40
0.5714285714285716
 40
0.6000000000000001
 40
0.6285714285714287
 40
0.6571428571428573
 40
0.6857142857142859
 40
0.7142857142857145
 40
0.742857142857143
 40
0.7714285714285716
 40
0.8000000000000001
 40
0.8285714285714288
 40
0.8571428571428572
 40
0.8793598016368463
 40
0.8793598016368463
 40
0.8793598016368463
 40
0.8793598016368463
 40
0.8793598016368463
 40
0.8793598016368463
 10
-3.711637403440047
 20
-2.0
 30
0.0
 41
1.0
 10
-3.745600376003038
 20
-2.021426418267893
 30
0.0
 41
1.0
 10
-3.817173482008394
 20
-2.06507548517258
 30
0.0
 41
1.0
 10
-3.935467094894365
 20
-2.132938713010718
 30
0.0
 41
1.0
 10
-4.115154290919813
 20
-2.228200496533611
 30
0.0
 41
1.0
 10
-4.369883278114808
 20
-2.355962840470988
 30
0.0
 41
1.0
 10
-4.636181884506994
 20
-2.494364750298446
 30
0.0
 41
1.0
 10
-4.874393784161563
 20
-2.647554637155908
 30
0.0
 41
1.0
 10
-5.025497394560129
 20
-2.82149614716574
 30
0.0
 41
1.0
 10
-5.034215485622963
 20
-3.020973314458237
 30
0.0
 41
1.0
 10
-4.869025400942698
 20
-3.246923372224288
 30
0.0
 41
1.0
 10
-4.53995204750297
 20
-3.494181407102227
 30
0.0
 41
1.0
 10
-4.085964851540086
 20
-3.75396014854193
 30
0.0
 41
1.0
 10
-3.565814970391574
 20
-4.015823392733211
 30
0.0
 41
1.0
 10
-3.047753051296356
 20
-4.269794940460998
 30
0.0
 41
1.0
 10
-2.599624605377871
 20
-4.508515444318608
 30
0.0
 41
1.0
 10
-2.279243396245154
 20
-4.729139187328066
 30
0.0
 41
1.0
 10
-2.123486609170791
 20
-4.936015990354368
 30
0.0
 41
1.0
 10
-2.146351461195564
 20
-5.13851885684308
 30
0.0
 41
1.0
 10
-2.339984962983479
 20
-5.347847338368096
 30
0.0
 41
1.0
 10
-2.673333918576252
 20
-5.573715360811005
 30
0.0
 41
1.0
 10
-3.096389798123682
 20
-5.822914627083522
 30
0.0
 41
1.0
 10
-3.549436289582067
 20
-6.099935610208087
 30
0.0
 41
1.0
 10
-3.970779939121104
 20
-6.407001334874645
 30
0.0
 41
1.0
 10
-4.305293942288342
 20
-6.744321254191964
 30
0.0
 41
1.0
 10
-4.512122891205399
 20
-7.110246917692671
 30
0.0
 41
1.0
 10
-4.574063721876832
 20
-7.5014279215838
 30
0.0
 41
1.0
 10
-4.502444514176839
 20
-7.91304155111763
 30
0.0
 41
1.0
 10
-4.328292545916881
 20
-8.339334457927403
 30
0.0
 41
1.0
 10
-4.096053328179147
 20
-8.774096988490583
 30
0.0
 41
1.0
 10
-3.856298667831625
 20
-9.211167302043952
 30
0.0
 41
1.0
 10
-3.667924877561765
 20
-9.625608908097678
 30
0.0
 41
1.0
 10
-3.57953156617936
 20
-9.947646490805169
 30
0.0
 41
1.0
 10
-3.557625912421618
 20
-10.18024435816607
 30
0.0
 41
1.0
 10
-3.563128824927054
 20
-10.32718026972217
 30
0.0
 41
1.0
 10
-3.569402389993973
 20
-10.39107421123786
 30
0.0
 41
1.0
  0
LINE
  5
C6
330
70
100
AcDbEntity
  8
cutter-1 v5_Sketch1
100
AcDbLine
 10
-2.546974080589466
 20
-0.8731134041100343
 30
0.0
 11
-1.453025919410533
 21
-3.126886595889963
 31
0.0
  0
CIRCLE
  5
C7
330
70
100
AcDbEntity
  8
cutter-1 v5_Sketch1
100
AcDbCircle
 10
2.350539228506605
 20
2.73231904550362
 30
0.0
 40
0.1000000000000001
  0
CIRCLE
  5
C8
330
70
100
AcDbEntity
  8
cutter-1 v5_Sketch1
100
AcDbCircle
 10
-2.530572573373491
 20
4.443215468282986
 30
0.0
 40
0.1000000000000003
  0
CIRCLE
  5
C9
330
70
100
AcDbEntity
  8
cutter-1 v5_Sketch1
100
AcDbCircle
 10
1.710803781913054
 20
1.376673585272313
 30
0.0
 40
0.0999999999999999
  0
LINE
  5
CA
330
70
100
AcDbEntity
  8
cutter-1 v5_Sketch1
100
AcDbLine
 10
-8.944674061423318
 20
-4.474633937151565
 30
0.0
 11
-9.055325935813312
 21
-5.047322990173844
 31
0.0
  0
LINE
  5
CB
330
70
100
AcDbEntity
  8
cutter-1 v5_Sketch1
100
AcDbLine
 10
-7.849143539624576
 20
-1.712568392350539
 30
0.0
 11
-8.150856460375424
 21
-2.28743160764946
 31
0.0
  0
LINE
  5
CC
330
70
100
AcDbEntity
  8
cutter-1 v5_Sketch1
100
AcDbLine
 10
-9.005848421731968
 20
-4.309988501218439
 30
0.0
 11
-8.944667756781495
 21
-4.965915000919224
 31
0.0
  0
CIRCLE
  5
CD
330
70
100
AcDbEntity
  8
cutter-1 v5_Sketch1
100
AcDbCircle
 10
-5.821805150012274
 20
7.770024172712696
 30
0.0
 40
0.0999999999999999
  0
CIRCLE
  5
CE
330
70
100
AcDbEntity
  8
cutter-1 v5_Sketch1
100
AcDbCircle
 10
-1.5
 20
1.0
 30
0.0
 40
0.1
  0
CIRCLE
  5
CF
330
70
100
AcDbEntity
  8
cutter-1 v5_Sketch1
100
AcDbCircle
 10
-4.317241686405973
 20
4.713879637262394
 30
0.0
 40
0.0999999999999998
  0
CIRCLE
  5
D0
330
70
100
AcDbEntity
  8
cutter-1 v5_Sketch1
100
AcDbCircle
 10
1.0
 20
1.0
 30
0.0
 40
0.1
  0
SPLINE
  5
D1
330
70
100
AcDbEntity
  8
cutter-1 v5_Sketch1
100
AcDbSpline
210
0.0
220
0.0
230
1.0
 70
    12
 71
     5
 72
    14
 73
     8
 74
     0
 42
0.000000001
 43
0.0000000001
 40
0.0
 40
0.0
 40
0.0
 40
0.0
 40
0.0
 40
0.0
 40
0.1
 40
0.2
 40
0.2291163676052726
 40
0.2291163676052726
 40
0.2291163676052726
 40
0.2291163676052726
 40
0.2291163676052726
 40
0.2291163676052726
 10
-8.0
 20
-2.0
 30
0.0
 41
1.0
 10
-8.126634674931947
 20
-2.241281070159501
 30
0.0
 41
1.0
 10
-8.363065819062759
 20
-2.723727632155114
 30
0.0
 41
1.0
 10
-8.5953369962087
 20
-3.276144835934914
 30
0.0
 41
1.0
 10
-8.782689235770286
 20
-3.828253713781443
 30
0.0
 41
1.0
 10
-8.922893553049384
 20
-4.380038965826993
 30
0.0
 41
1.0
 10
-8.986457172446742
 20
-4.690886308982088
 30
0.0
 41
1.0
 10
-8.999999998618315
 20
-4.760978463662705
 30
0.0
 41
1.0
  0
LINE
  5
D2
330
70
100
AcDbEntity
  8
cutter-1 v5_Sketch1
100
AcDbLine
 10
-1.055325938576685
 20
-4.474633937151566
 30
0.0
 11
-0.9446740641866863
 21
-5.04732299017384
 31
0.0
  0
SPLINE
  5
D3
330
70
100
AcDbEntity
  8
cutter-1 v5_Sketch1
100
AcDbSpline
210
0.0
220
0.0
230
1.0
 70
    12
 71
     5
 72
    21
 73
    15
 74
     0
 42
0.000000001
 43
0.0000000001
 40
0.0
 40
0.0
 40
0.0
 40
0.0
 40
0.0
 40
0.0
 40
0.1
 40
0.2
 40
0.3
 40
0.4
 40
0.5
 40
0.6
 40
0.7
 40
0.8
 40
0.9
 40
1.0
 40
1.0
 40
1.0
 40
1.0
 40
1.0
 40
1.0
 10
-5.0
 20
12.0
 30
0.0
 41
1.0
 10
-5.051562526140401
 20
11.97075976473896
 30
0.0
 41
1.0
 10
-5.151777809596662
 20
11.90944353246289
 30
0.0
 41
1.0
 10
-5.29337107080535
 20
11.80896155037749
 30
0.0
 41
1.0
 10
-5.46441861150975
 20
11.65769338760967
 30
0.0
 41
1.0
 10
-5.646801399307475
 20
11.43798085129137
 30
0.0
 41
1.0
 10
-5.795503363754836
 20
11.185444129803
 30
0.0
 41
1.0
 10
-5.908698444432473
 20
10.89830360675239
 30
0.0
 41
1.0
 10
-5.986950042294846
 20
10.57710835355211
 30
0.0
 41
1.0
 10
-6.032953370163474
 20
10.22448503297104
 30
0.0
 41
1.0
 10
-6.049792823374957
 20
9.843439591823685
 30
0.0
 41
1.0
 10
-6.04213205753043
 20
9.518008390207279
 30
0.0
 41
1.0
 10
-6.025304742817295
 20
9.263135101687662
 30
0.0
 41
1.0
 10
-6.009242332128819
 20
9.088498582550354
 30
0.0
 41
1.0
 10
-6.0
 20
9.0
 30
0.0
 41
1.0
  0
CIRCLE
  5
D4
330
70
100
AcDbEntity
  8
cutter-1 v5_Sketch1
100
AcDbCircle
 10
2.971394073517227
 20
4.825290493689611
 30
0.0
 40
0.1000000000000003
  0
SPLINE
  5
D5
330
70
100
AcDbEntity
  8
cutter-1 v5_Sketch1
100
AcDbSpline
210
0.0
220
0.0
230
1.0
 70
    12
 71
     5
 72
    42
 73
    36
 74
     0
 42
0.000000001
 43
0.0000000001
 40
0.0
 40
0.0
 40
0.0
 40
0.0
 40
0.0
 40
0.0
 40
0.0285714285714286
 40
0.0571428571428571
 40
0.0857142857142858
 40
0.1142857142857143
 40
0.1428571428571428
 40
0.1714285714285714
 40
0.2
 40
0.2285714285714286
 40
0.2571428571428572
 40
0.2857142857142858
 40
0.3142857142857143
 40
0.3428571428571429
 40
0.3714285714285715
 40
0.4000000000000001
 40
0.4285714285714287
 40
0.4571428571428572
 40
0.4857142857142859
 40
0.5142857142857144
 40
0.5428571428571429
 40
0.5714285714285716
 40
0.6000000000000001
 40
0.6285714285714287
 40
0.6571428571428573
 40
0.6857142857142859
 40
0.7142857142857145
 40
0.742857142857143
 40
0.7714285714285716
 40
0.8000000000000001
 40
0.8285714285714288
 40
0.8571428571428572
 40
0.8793598016368463
 40
0.8793598016368463
 40
0.8793598016368463
 40
0.8793598016368463
 40
0.8793598016368463
 40
0.8793598016368463
 10
-6.288362596559952
 20
-2.0
 30
0.0
 41
1.0
 10
-6.254399623996961
 20
-2.021426418267893
 30
0.0
 41
1.0
 10
-6.182826517991605
 20
-2.06507548517258
 30
0.0
 41
1.0
 10
-6.064532905105634
 20
-2.132938713010718
 30
0.0
 41
1.0
 10
-5.884845709080186
 20
-2.228200496533611
 30
0.0
 41
1.0
 10
-5.630116721885191
 20
-2.355962840470988
 30
0.0
 41
1.0
 10
-5.363818115493005
 20
-2.494364750298446
 30
0.0
 41
1.0
 10
-5.125606215838436
 20
-2.647554637155908
 30
0.0
 41
1.0
 10
-4.97450260543987
 20
-2.82149614716574
 30
0.0
 41
1.0
 10
-4.965784514377036
 20
-3.020973314458237
 30
0.0
 41
1.0
 10
-5.130974599057301
 20
-3.246923372224288
 30
0.0
 41
1.0
 10
-5.460047952497029
 20
-3.494181407102227
 30
0.0
 41
1.0
 10
-5.914035148459913
 20
-3.75396014854193
 30
0.0
 41
1.0
 10
-6.434185029608425
 20
-4.015823392733211
 30
0.0
 41
1.0
 10
-6.952246948703643
 20
-4.269794940460998
 30
0.0
 41
1.0
 10
-7.400375394622128
 20
-4.508515444318608
 30
0.0
 41
1.0
 10
-7.720756603754845
 20
-4.729139187328066
 30
0.0
 41
1.0
 10
-7.876513390829208
 20
-4.936015990354368
 30
0.0
 41
1.0
 10
-7.853648538804435
 20
-5.13851885684308
 30
0.0
 41
1.0
 10
-7.66001503701652
 20
-5.347847338368096
 30
0.0
 41
1.0
 10
-7.326666081423747
 20
-5.573715360811005
 30
0.0
 41
1.0
 10
-6.903610201876317
 20
-5.822914627083522
 30
0.0
 41
1.0
 10
-6.450563710417932
 20
-6.099935610208087
 30
0.0
 41
1.0
 10
-6.029220060878895
 20
-6.407001334874645
 30
0.0
 41
1.0
 10
-5.694706057711657
 20
-6.744321254191964
 30
0.0
 41
1.0
 10
-5.4878771087946
 20
-7.110246917692671
 30
0.0
 41
1.0
 10
-5.425936278123167
 20
-7.5014279215838
 30
0.0
 41
1.0
 10
-5.49755548582316
 20
-7.91304155111763
 30
0.0
 41
1.0
 10
-5.671707454083118
 20
-8.339334457927403
 30
0.0
 41
1.0
 10
-5.903946671820852
 20
-8.774096988490583
 30
0.0
 41
1.0
 10
-6.143701332168374
 20
-9.211167302043952
 30
0.0
 41
1.0
 10
-6.332075122438235
 20
-9.625608908097678
 30
0.0
 41
1.0
 10
-6.420468433820639
 20
-9.947646490805169
 30
0.0
 41
1.0
 10
-6.442374087578381
 20
-10.18024435816607
 30
0.0
 41
1.0
 10
-6.436871175072945
 20
-10.32718026972217
 30
0.0
 41
1.0
 10
-6.430597610006025
 20
-10.39107421123786
 30
0.0
 41
1.0
  0
SPLINE
  5
D6
330
70
100
AcDbEntity
  8
cutter-1 v5_Sketch1
100
AcDbSpline
210
0.0
220
0.0
230
1.0
 70
    12
 71
     5
 72
    18
 73
    12
 74
     0
 42
0.000000001
 43
0.0000000001
 40
0.3351123386947702
 40
0.3351123386947702
 40
0.3351123386947702
 40
0.3351123386947702
 40
0.3351123386947702
 40
0.3351123386947702
 40
0.36
 40
0.4
 40
0.44
 40
0.4799999999999999
 40
0.52
 40
0.56
 40
0.5734304788104165
 40
0.5734304788104165
 40
0.5734304788104165
 40
0.5734304788104165
 40
0.5734304788104165
 40
0.5734304788104165
 10
-8.583417789574951
 20
-6.389459725658639
 30
0.0
 41
1.0
 10
-8.556552474807071
 20
-6.464315912384354
 30
0.0
 41
1.0
 10
-8.48463935414759
 20
-6.655813808065659
 30
0.0
 41
1.0
 10
-8.361382657444703
 20
-6.948653195673179
 30
0.0
 41
1.0
 10
-8.180904090053909
 20
-7.309668292336264
 30
0.0
 41
1.0
 10
-7.951293653522911
 20
-7.686351894361712
 30
0.0
 41
1.0
 10
-7.735841671355099
 20
-8.009495072688903
 30
0.0
 41
1.0
 10
-7.610571035292449
 20
-8.256720335105816
 30
0.0
 41
1.0
 10
-7.571983006981554
 20
-8.456851404568958
 30
0.0
 41
1.0
 10
-7.577332447549404
 20
-8.612421139564085
 30
0.0
 41
1.0
 10
-7.591035532363405
 20
-8.707683439542702
 30
0.0
 41
1.0
 10
-7.595150738712696
 20
-8.732043654216944
 30
0.0
 41
1.0
  0
LINE
  5
D7
330
70
100
AcDbEntity
  8
cutter-1 v5_Sketch1
100
AcDbLine
 10
-7.549373380665013
 20
-8.461061794594444
 30
0.0
 11
-7.640928096760379
 21
-9.003025513839448
 31
0.0
  0
LINE
  5
D8
330
70
100
AcDbEntity
  8
cutter-1 v5_Sketch1
100
AcDbLine
 10
-0.9941515782680315
 20
-4.309988501218447
 30
0.0
 11
-1.055332243218505
 21
-4.965915000919234
 31
0.0
  0
SPLINE
  5
D9
330
70
100
AcDbEntity
  8
cutter-1 v5_Sketch1
100
AcDbSpline
210
0.0
220
0.0
230
1.0
 70
    12
 71
     5
 72
    20
 73
    14
 74
     0
 42
0.000000001
 43
0.0000000001
 40
0.6791108447306726
 40
0.6791108447306726
 40
0.6791108447306726
 40
0.6791108447306726
 40
0.6791108447306726
 40
0.6791108447306726
 40
0.6800000000000001
 40
0.7200000000000001
 40
0.7600000000000002
 40
0.8000000000000001
 40
0.8400000000000002
 40
0.8800000000000002
 40
0.9200000000000002
 40
0.9600000000000003
 40
1.0
 40
1.0
 40
1.0
 40
1.0
 40
1.0
 40
1.0
 10
-8.116676388657511
 20
-9.977003851171378
 30
0.0
 41
1.0
 10
-8.117998022630061
 20
-9.979552896695736
 30
0.0
 41
1.0
 10
-8.178819781878861
 20
-10.09684460870179
 30
0.0
 41
1.0
 10
-8.303143534431395
 20
-10.33522277614208
 30
0.0
 41
1.0
 10
-8.495652172527627
 20
-10.7073396038954
 30
0.0
 41
1.0
 10
-8.743378161605097
 20
-11.22034322662187
 30
0.0
 41
1.0
 10
-8.984087524907613
 20
-11.84992230929155
 30
0.0
 41
1.0
 10
-9.110961628576959
 20
-12.43675277505668
 30
0.0
 41
1.0
 10
-9.092870490285264
 20
-12.9572252236335
 30
0.0
 41
1.0
 10
-8.912821970671446
 20
-13.39820102463757
 30
0.0
 41
1.0
 10
-8.633166649306293
 20
-13.68247261406936
 30
0.0
 41
1.0
 10
-8.346444794276864
 20
-13.85645253520304
 30
0.0
 41
1.0
 10
-8.121169396414604
 20
-13.95504908656552
 30
0.0
 41
1.0
 10
-8.0
 20
-14.0
 30
0.0
 41
1.0
  0
SPLINE
  5
DA
330
70
100
AcDbEntity
  8
cutter-1 v5_Sketch1
100
AcDbSpline
210
0.0
220
0.0
230
1.0
 70
    12
 71
     5
 72
    16
 73
    10
 74
     0
 42
0.000000001
 43
0.0000000001
 40
0.4653063004040698
 40
0.4653063004040698
 40
0.4653063004040698
 40
0.4653063004040698
 40
0.4653063004040698
 40
0.4653063004040698
 40
0.5
 40
0.6
 40
0.7
 40
0.8
 40
0.8121133571856983
 40
0.8121133571856983
 40
0.8121133571856983
 40
0.8121133571856983
 40
0.8121133571856983
 40
0.8121133571856983
 10
-8.9999999339222
 20
-7.600121316942645
 30
0.0
 41
1.0
 10
-8.983177504381806
 20
-7.683413609558191
 30
0.0
 41
1.0
 10
-8.91296268940643
 20
-8.006751257187019
 30
0.0
 41
1.0
 10
-8.757462698744177
 20
-8.569915346050198
 30
0.0
 41
1.0
 10
-8.453917850056214
 20
-9.372475090408116
 30
0.0
 41
1.0
 10
-8.02471585991905
 20
-10.20329426285497
 30
0.0
 41
1.0
 10
-7.550649084797196
 20
-10.95039771842007
 30
0.0
 41
1.0
 10
-7.190495961609657
 20
-11.45787124010779
 30
0.0
 41
1.0
 10
-6.989836154404699
 20
-11.72602768911558
 30
0.0
 41
1.0
 10
-6.968035887647371
 20
-11.75499999622096
 30
0.0
 41
1.0
  0
LINE
  5
DB
330
70
100
AcDbEntity
  8
cutter-1 v5_Sketch1
100
AcDbLine
 10
-1.505755680450768
 20
-13.81664731953008
 30
0.0
 11
-2.494244319549231
 21
-14.18335268046992
 31
0.0
  0
LINE
  5
DC
330
70
100
AcDbEntity
  8
cutter-1 v5_Sketch1
100
AcDbLine
 10
-3.483338547548397
 20
-9.514545784868358
 30
0.0
 11
-3.655466232439549
 21
-11.26760263760737
 31
0.0
  0
SPLINE
  5
DD
330
70
100
AcDbEntity
  8
cutter-1 v5_Sketch1
100
AcDbSpline
210
0.0
220
0.0
230
1.0
 70
    12
 71
     5
 72
    21
 73
    15
 74
     0
 42
0.000000001
 43
0.0000000001
 40
0.0
 40
0.0
 40
0.0
 40
0.0
 40
0.0
 40
0.0
 40
0.1
 40
0.2
 40
0.3
 40
0.4
 40
0.5
 40
0.6
 40
0.7
 40
0.8
 40
0.9
 40
1.0
 40
1.0
 40
1.0
 40
1.0
 40
1.0
 40
1.0
 10
-8.0
 20
-2.0
 30
0.0
 41
1.0
 10
-8.092756459121115
 20
-2.191098653803037
 30
0.0
 41
1.0
 10
-8.264289054802162
 20
-2.574110615609699
 30
0.0
 41
1.0
 10
-8.47964534366468
 20
-3.151072616310475
 30
0.0
 41
1.0
 10
-8.681535959151171
 20
-3.925322992550209
 30
0.0
 41
1.0
 10
-8.782789254014144
 20
-4.901941365938353
 30
0.0
 41
1.0
 10
-8.721734920073663
 20
-5.888017646394314
 30
0.0
 41
1.0
 10
-8.488873940021367
 20
-6.884105355791733
 30
0.0
 41
1.0
 10
-8.085588244018062
 20
-7.890123967003066
 30
0.0
 41
1.0
 10
-7.524346795032951
 20
-8.905346895000263
 30
0.0
 41
1.0
 10
-6.819833028036375
 20
-9.928918514176457
 30
0.0
 41
1.0
 10
-6.152243224131451
 20
-10.75383480836295
 30
0.0
 41
1.0
 10
-5.596990481212074
 20
-11.37570134412068
 30
0.0
 41
1.0
 10
-5.202972073951312
 20
-11.7916688044888
 30
0.0
 41
1.0
 10
-5.0
 20
-12.0
 30
0.0
 41
1.0
  0
CIRCLE
  5
DE
330
70
100
AcDbEntity
  8
cutter-1 v5_Sketch1
100
AcDbCircle
 10
-2.5
 20
2.5
 30
0.0
 40
0.0999999999999998
  0
CIRCLE
  5
DF
330
70
100
AcDbEntity
  8
cutter-1 v5_Sketch1
100
AcDbCircle
 10
-3.400398325770884
 20
3.726509864270757
 30
0.0
 40
0.1000000000000001
  0
SPLINE
  5
E0
330
70
100
AcDbEntity
  8
cutter-1 v5_Sketch1
100
AcDbSpline
210
0.0
220
0.0
230
1.0
 70
    12
 71
     5
 72
    14
 73
     8
 74
     0
 42
0.000000001
 43
0.0000000001
 40
0.0
 40
0.0
 40
0.0
 40
0.0
 40
0.0
 40
0.0
 40
0.1
 40
0.2
 40
0.2291163676052725
 40
0.2291163676052725
 40
0.2291163676052725
 40
0.2291163676052725
 40
0.2291163676052725
 40
0.2291163676052725
 10
-2.0
 20
-2.0
 30
0.0
 41
1.0
 10
-1.873365325068052
 20
-2.241281070159501
 30
0.0
 41
1.0
 10
-1.63693418093724
 20
-2.723727632155114
 30
0.0
 41
1.0
 10
-1.4046630037913
 20
-3.276144835934914
 30
0.0
 41
1.0
 10
-1.217310764229713
 20
-3.828253713781443
 30
0.0
 41
1.0
 10
-1.077106446950616
 20
-4.380038965826993
 30
0.0
 41
1.0
 10
-1.013542827553259
 20
-4.690886308982088
 30
0.0
 41
1.0
 10
-1.000000001381685
 20
-4.760978463662704
 30
0.0
 41
1.0
  0
LINE
  5
E1
330
70
100
AcDbEntity
  8
cutter-1 v5_Sketch1
100
AcDbLine
 10
-3.101526178033245
 20
-1.615095578537554
 30
0.0
 11
-4.321748628846848
 21
-2.384904421462445
 31
0.0
  0
LINE
  5
E2
330
70
100
AcDbEntity
  8
cutter-1 v5_Sketch1
100
AcDbLine
 10
-7.92307088961048
 20
-9.603595448325375
 30
0.0
 11
-8.310281887704542
 21
-10.35041225401738
 31
0.0
  0
SPLINE
  5
E3
330
70
100
AcDbEntity
  8
cutter-1 v5_Sketch1
100
AcDbSpline
210
0.0
220
0.0
230
1.0
 70
    12
 71
     5
 72
    17
 73
    11
 74
     0
 42
0.000000001
 43
0.0000000001
 40
0.0
 40
0.0
 40
0.0
 40
0.0
 40
0.0
 40
0.0
 40
0.04
 40
0.08
 40
0.12
 40
0.16
 40
0.2
 40
0.2285706050308144
 40
0.2285706050308144
 40
0.2285706050308144
 40
0.2285706050308144
 40
0.2285706050308144
 40
0.2285706050308144
 10
-2.0
 20
-2.0
 30
0.0
 41
1.0
 10
-1.917443466154294
 20
-2.03827296614469
 30
0.0
 41
1.0
 10
-1.760847073896036
 20
-2.124944801830085
 30
0.0
 41
1.0
 10
-1.551502531017479
 20
-2.285331231416038
 30
0.0
 41
1.0
 10
-1.32360971699415
 20
-2.560087343333078
 30
0.0
 41
1.0
 10
-1.124428711072352
 20
-3.003457610994877
 30
0.0
 41
1.0
 10
-1.016966580806214
 20
-3.509523315421177
 30
0.0
 41
1.0
 10
-0.9896870420566381
 20
-3.962892204059411
 30
0.0
 41
1.0
 10
-0.9989399722954372
 20
-4.314891605995029
 30
0.0
 41
1.0
 10
-1.015834544972076
 20
-4.542454631895941
 30
0.0
 41
1.0
 10
-1.024741910743268
 20
-4.637951751068841
 30
0.0
 41
1.0
  0
LINE
  5
E4
330
70
100
AcDbEntity
  8
cutter-1 v5_Sketch1
100
AcDbLine
 10
-8.690902666131167
 20
-6.089969172162419
 30
0.0
 11
-8.475932913018736
 21
-6.688950279154859
 31
0.0
  0
LINE
  5
E5
330
70
100
AcDbEntity
  8
cutter-1 v5_Sketch1
100
AcDbLine
 10
-1.309097333868825
 20
-6.089969172162427
 30
0.0
 11
-1.524067086981277
 21
-6.688950279154862
 31
0.0
  0
CIRCLE
  5
E6
330
70
100
AcDbEntity
  8
cutter-1 v5_Sketch1
100
AcDbCircle
 10
3.520980070908299
 20
5.741267156008063
 30
0.0
 40
0.0999999999999999
  0
LINE
  5
E7
330
70
100
AcDbEntity
  8
cutter-1 v5_Sketch1
100
AcDbLine
 10
-7.74859840125204
 20
-1.88345095864145
 30
0.0
 11
-8.251401598747959
 21
-2.116549041358549
 31
0.0
  0
LINE
  5
E8
330
70
100
AcDbEntity
  8
cutter-1 v5_Sketch1
100
AcDbLine
 10
-7.453025919410533
 20
-0.873113404110035
 30
0.0
 11
-8.546974080589466
 21
-3.126886595889964
 31
0.0
  0
LINE
  5
E9
330
70
100
AcDbEntity
  8
cutter-1 v5_Sketch1
100
AcDbLine
 10
-6.601180968823823
 20
9.229177101778606
 30
0.0
 11
-5.839165350977348
 21
11.05885838884706
 31
0.0
  0
SPLINE
  5
EA
330
70
100
AcDbEntity
  8
cutter-1 v5_Sketch1
100
AcDbSpline
210
0.0
220
0.0
230
1.0
 70
    12
 71
     5
 72
    24
 73
    18
 74
     0
 42
0.000000001
 43
0.0000000001
 40
0.1984207587109349
 40
0.1984207587109349
 40
0.1984207587109349
 40
0.1984207587109349
 40
0.1984207587109349
 40
0.1984207587109349
 40
0.2
 40
0.2666666666666666
 40
0.3333333333333333
 40
0.4
 40
0.4666666666666666
 40
0.5333333333333333
 40
0.6
 40
0.6666666666666666
 40
0.7333333333333333
 40
0.8
 40
0.8666666666666666
 40
0.9333333333333332
 40
1.0
 40
1.0
 40
1.0
 40
1.0
 40
1.0
 40
1.0
 10
-6.220173159719891
 20
10.14401774404151
 30
0.0
 41
1.0
 10
-6.220254927978061
 20
10.14040082492256
 30
0.0
 41
1.0
 10
-6.223472127386765
 20
9.983986073983755
 30
0.0
 41
1.0
 10
-6.202813341515271
 20
9.665220998174506
 30
0.0
 41
1.0
 10
-6.093154733282779
 20
9.161190087467957
 30
0.0
 41
1.0
 10
-5.797229690132551
 20
8.438260021995917
 30
0.0
 41
1.0
 10
-5.222115907119584
 20
7.470593346066892
 30
0.0
 41
1.0
 10
-4.499302047502279
 20
6.45835453247094
 30
0.0
 41
1.0
 10
-3.699856092640201
 20
5.430926698497041
 30
0.0
 41
1.0
 10
-2.899997202037985
 20
4.419791451444919
 30
0.0
 41
1.0
 10
-2.17438522235837
 20
3.455781777808968
 30
0.0
 41
1.0
 10
-1.589339331817046
 20
2.566246607115346
 30
0.0
 41
1.0
 10
-1.196585817010713
 20
1.772418286895979
 30
0.0
 41
1.0
 10
-1.023705862714029
 20
1.085316748800879
 30
0.0
 41
1.0
 10
-1.068368856179651
 20
0.6235548946132993
 30
0.0
 41
1.0
 10
-1.204622404699546
 20
0.3264484459937381
 30
0.0
 41
1.0
 10
-1.340786059261425
 20
0.1500877114389179
 30
0.0
 41
1.0
 10
-1.420200560654006
 20
0.0673352021800182
 30
0.0
 41
1.0
  0
LINE
  5
EB
330
70
100
AcDbEntity
  8
cutter-1 v5_Sketch1
100
AcDbLine
 10
-2.150856460375423
 20
-1.712568392350539
 30
0.0
 11
-1.849143539624576
 21
-2.28743160764946
 31
0.0
  0
LINE
  5
EC
330
70
100
AcDbEntity
  8
cutter-1 v5_Sketch1
100
AcDbLine
 10
-6.898473821966754
 20
-1.615095578537554
 30
0.0
 11
-5.678251371153151
 21
-2.384904421462445
 31
0.0
  0
LINE
  5
ED
330
70
100
AcDbEntity
  8
cutter-1 v5_Sketch1
100
AcDbLine
 10
-2.25140159874796
 20
-1.88345095864145
 30
0.0
 11
-1.748598401252039
 21
-2.116549041358549
 31
0.0
  0
SPLINE
  5
EE
330
70
100
AcDbEntity
  8
cutter-1 v5_Sketch1
100
AcDbSpline
210
0.0
220
0.0
230
1.0
 70
    12
 71
     5
 72
    18
 73
    12
 74
     0
 42
0.000000001
 43
0.0000000001
 40
0.3351123386947706
 40
0.3351123386947706
 40
0.3351123386947706
 40
0.3351123386947706
 40
0.3351123386947706
 40
0.3351123386947706
 40
0.36
 40
0.4
 40
0.44
 40
0.4799999999999999
 40
0.52
 40
0.56
 40
0.5734304788104165
 40
0.5734304788104165
 40
0.5734304788104165
 40
0.5734304788104165
 40
0.5734304788104165
 40
0.5734304788104165
 10
-1.416582210425051
 20
-6.389459725658644
 30
0.0
 41
1.0
 10
-1.443447525192933
 20
-6.464315912384358
 30
0.0
 41
1.0
 10
-1.515360645852413
 20
-6.655813808065661
 30
0.0
 41
1.0
 10
-1.638617342555298
 20
-6.94865319567318
 30
0.0
 41
1.0
 10
-1.819095909946091
 20
-7.309668292336265
 30
0.0
 41
1.0
 10
-2.048706346477088
 20
-7.686351894361712
 30
0.0
 41
1.0
 10
-2.2641583286449
 20
-8.009495072688903
 30
0.0
 41
1.0
 10
-2.389428964707551
 20
-8.256720335105816
 30
0.0
 41
1.0
 10
-2.428016993018445
 20
-8.456851404568958
 30
0.0
 41
1.0
 10
-2.422667552450594
 20
-8.612421139564085
 30
0.0
 41
1.0
 10
-2.408964467636593
 20
-8.707683439542702
 30
0.0
 41
1.0
 10
-2.404849261287303
 20
-8.732043654216944
 30
0.0
 41
1.0
  0
SPLINE
  5
EF
330
70
100
AcDbEntity
  8
cutter-1 v5_Sketch1
100
AcDbSpline
210
0.0
220
0.0
230
1.0
 70
    12
 71
     5
 72
    13
 73
     7
 74
     0
 42
0.000000001
 43
0.0000000001
 40
0.8326022746919191
 40
0.8326022746919191
 40
0.8326022746919191
 40
0.8326022746919191
 40
0.8326022746919191
 40
0.8326022746919191
 40
0.9
 40
1.0
 40
1.0
 40
1.0
 40
1.0
 40
1.0
 40
1.0
 10
-6.780256638297533
 20
-11.99999999071573
 30
0.0
 41
1.0
 10
-6.654485255852983
 20
-12.16116880301799
 30
0.0
 41
1.0
 10
-6.333029523853593
 20
-12.56140627085302
 30
0.0
 41
1.0
 10
-5.9894048889741
 20
-12.96149157017919
 30
0.0
 41
1.0
 10
-5.624368393309969
 20
-13.36142989737292
 30
0.0
 41
1.0
 10
-5.238215772667961
 20
-13.76122328238021
 30
0.0
 41
1.0
 10
-5.0
 20
-14.0
 30
0.0
 41
1.0
  0
LINE
  5
F0
330
70
100
AcDbEntity
  8
cutter-1 v5_Sketch1
100
AcDbLine
 10
-6.94182154203057
 20
-11.792963834014
 30
0.0
 11
-6.618691734564496
 21
-12.20703614741746
 31
0.0
  0
SPLINE
  5
F1
330
70
100
AcDbEntity
  8
cutter-1 v5_Sketch1
100
AcDbSpline
210
0.0
220
0.0
230
1.0
 70
    12
 71
     5
 72
    20
 73
    14
 74
     0
 42
0.000000001
 43
0.0000000001
 40
0.6791108447306726
 40
0.6791108447306726
 40
0.6791108447306726
 40
0.6791108447306726
 40
0.6791108447306726
 40
0.6791108447306726
 40
0.6800000000000001
 40
0.7200000000000001
 40
0.7600000000000002
 40
0.8000000000000001
 40
0.8400000000000002
 40
0.8800000000000002
 40
0.9200000000000002
 40
0.9600000000000003
 40
1.0
 40
1.0
 40
1.0
 40
1.0
 40
1.0
 40
1.0
 10
-1.883323611342487
 20
-9.977003851171378
 30
0.0
 41
1.0
 10
-1.882001977369938
 20
-9.979552896695736
 30
0.0
 41
1.0
 10
-1.821180218121138
 20
-10.09684460870179
 30
0.0
 41
1.0
 10
-1.696856465568604
 20
-10.33522277614208
 30
0.0
 41
1.0
 10
-1.504347827472372
 20
-10.7073396038954
 30
0.0
 41
1.0
 10
-1.256621838394902
 20
-11.22034322662187
 30
0.0
 41
1.0
 10
-1.015912475092386
 20
-11.84992230929155
 30
0.0
 41
1.0
 10
-0.8890383714230409
 20
-12.43675277505668
 30
0.0
 41
1.0
 10
-0.9071295097147356
 20
-12.9572252236335
 30
0.0
 41
1.0
 10
-1.087178029328553
 20
-13.39820102463757
 30
0.0
 41
1.0
 10
-1.366833350693706
 20
-13.68247261406936
 30
0.0
 41
1.0
 10
-1.653555205723135
 20
-13.85645253520304
 30
0.0
 41
1.0
 10
-1.878830603585395
 20
-13.95504908656552
 30
0.0
 41
1.0
 10
-2.0
 20
-14.0
 30
0.0
 41
1.0
  0
CIRCLE
  5
F2
330
70
100
AcDbEntity
  8
cutter-1 v5_Sketch1
100
AcDbCircle
 10
-2.5
 20
1.5
 30
0.0
 40
0.1000000000000002
  0
SPLINE
  5
F3
330
70
100
AcDbEntity
  8
cutter-1 v5_Sketch1
100
AcDbSpline
210
0.0
220
0.0
230
1.0
 70
    12
 71
     5
 72
    21
 73
    15
 74
     0
 42
0.000000001
 43
0.0000000001
 40
0.0
 40
0.0
 40
0.0
 40
0.0
 40
0.0
 40
0.0
 40
0.1
 40
0.2
 40
0.3
 40
0.4
 40
0.5
 40
0.6
 40
0.7
 40
0.8
 40
0.9
 40
1.0
 40
1.0
 40
1.0
 40
1.0
 40
1.0
 40
1.0
 10
-2.0
 20
-2.0
 30
0.0
 41
1.0
 10
-1.907243540878884
 20
-2.191098653803037
 30
0.0
 41
1.0
 10
-1.735710945197837
 20
-2.574110615609699
 30
0.0
 41
1.0
 10
-1.520354656335319
 20
-3.151072616310475
 30
0.0
 41
1.0
 10
-1.318464040848828
 20
-3.925322992550209
 30
0.0
 41
1.0
 10
-1.217210745985855
 20
-4.901941365938353
 30
0.0
 41
1.0
 10
-1.278265079926336
 20
-5.888017646394314
 30
0.0
 41
1.0
 10
-1.511126059978632
 20
-6.884105355791733
 30
0.0
 41
1.0
 10
-1.914411755981937
 20
-7.890123967003066
 30
0.0
 41
1.0
 10
-2.475653204967048
 20
-8.905346895000263
 30
0.0
 41
1.0
 10
-3.180166971963624
 20
-9.928918514176457
 30
0.0
 41
1.0
 10
-3.847756775868548
 20
-10.75383480836295
 30
0.0
 41
1.0
 10
-4.403009518787925
 20
-11.37570134412068
 30
0.0
 41
1.0
 10
-4.797027926048687
 20
-11.7916688044888
 30
0.0
 41
1.0
 10
-5.0
 20
-12.0
 30
0.0
 41
1.0
  0
LINE
  5
F4
330
70
100
AcDbEntity
  8
cutter-1 v5_Sketch1
100
AcDbLine
 10
-5.206292577386353
 20
-13.79322164965836
 30
0.0
 11
-4.793707422613646
 21
-14.20677835034163
 31
0.0
  0
LINE
  5
F5
330
70
100
AcDbEntity
  8
cutter-1 v5_Sketch1
100
AcDbLine
 10
-2.701847963939707
 20
-11.31627938152709
 30
0.0
 11
-3.362080260765554
 21
-12.19372061091484
 31
0.0
  0
LINE
  5
F6
330
70
100
AcDbEntity
  8
cutter-1 v5_Sketch1
100
AcDbLine
 10
-4.013405547699869
 20
-10.9873562518669
 30
0.0
 11
-5.98659445230013
 21
-13.01264374813309
 31
0.0
  0
LINE
  5
F7
330
70
100
AcDbEntity
  8
cutter-1 v5_Sketch1
100
AcDbLine
 10
-6.195050763465384
 20
11.25527628569087
 30
0.0
 11
-6.245295555974398
 21
9.03275920239216
 31
0.0
  0
LINE
  5
F8
330
70
100
AcDbEntity
  8
cutter-1 v5_Sketch1
100
AcDbLine
 10
-2.076929110389455
 20
-9.603595448325373
 30
0.0
 11
-1.68971811229552
 21
-10.35041225401738
 31
0.0
  0
LINE
  5
F9
330
70
100
AcDbEntity
  8
cutter-1 v5_Sketch1
100
AcDbLine
 10
-6.516661452451609
 20
-9.514545784868358
 30
0.0
 11
-6.344533767560443
 21
-11.26760263760737
 31
0.0
  0
CIRCLE
  5
FA
330
70
100
AcDbEntity
  8
cutter-1 v5_Sketch1
100
AcDbCircle
 10
1.5
 20
3.0
 30
0.0
 40
0.1
  0
SPLINE
  5
FB
330
70
100
AcDbEntity
  8
cutter-1 v5_Sketch1
100
AcDbSpline
210
0.0
220
0.0
230
1.0
 70
    12
 71
     5
 72
    17
 73
    11
 74
     0
 42
0.000000001
 43
0.0000000001
 40
0.0
 40
0.0
 40
0.0
 40
0.0
 40
0.0
 40
0.0
 40
0.04
 40
0.08
 40
0.12
 40
0.16
 40
0.2
 40
0.2285706050308137
 40
0.2285706050308137
 40
0.2285706050308137
 40
0.2285706050308137
 40
0.2285706050308137
 40
0.2285706050308137
 10
-8.0
 20
-2.0
 30
0.0
 41
1.0
 10
-8.082556533845705
 20
-2.03827296614469
 30
0.0
 41
1.0
 10
-8.239152926103963
 20
-2.124944801830085
 30
0.0
 41
1.0
 10
-8.44849746898252
 20
-2.285331231416038
 30
0.0
 41
1.0
 10
-8.676390283005849
 20
-2.560087343333078
 30
0.0
 41
1.0
 10
-8.875571288927647
 20
-3.003457610994877
 30
0.0
 41
1.0
 10
-8.983033419193786
 20
-3.509523315421176
 30
0.0
 41
1.0
 10
-9.01031295794336
 20
-3.962892204059408
 30
0.0
 41
1.0
 10
-9.001060027704562
 20
-4.314891605995024
 30
0.0
 41
1.0
 10
-8.984165455027923
 20
-4.542454631895934
 30
0.0
 41
1.0
 10
-8.975258089256731
 20
-4.637951751068832
 30
0.0
 41
1.0
  0
LINE
  5
FC
330
70
100
AcDbEntity
  8
cutter-1 v5_Sketch1
100
AcDbLine
 10
-5.98659445230013
 20
-10.9873562518669
 30
0.0
 11
-4.013405547699869
 21
-13.01264374813309
 31
0.0
  0
CIRCLE
  5
FD
330
70
100
AcDbEntity
  8
cutter-1 v5_Sketch1
100
AcDbCircle
 10
1.0
 20
7.0
 30
0.0
 40
0.1
  0
CIRCLE
  5
FE
330
70
100
AcDbEntity
  8
cutter-1 v5_Sketch1
100
AcDbCircle
 10
0.5
 20
8.0
 30
0.0
 40
0.0999999999999999
  0
LINE
  5
FF
330
70
100
AcDbEntity
  8
cutter-1 v5_Sketch1
100
AcDbLine
 10
-4.793707422613646
 20
-13.79322164965836
 30
0.0
 11
-5.206292577386353
 21
-14.20677835034163
 31
0.0
  0
CIRCLE
  5
100
330
70
100
AcDbEntity
  8
cutter-1 v5_Sketch1
100
AcDbCircle
 10
-0.6543621638086208
 20
8.716566802791852
 30
0.0
 40
0.1000000000000003
  0
LINE
  5
101
330
70
100
AcDbEntity
  8
cutter-1 v5_Sketch1
100
AcDbLine
 10
-3.058178457969427
 20
-11.792963834014
 30
0.0
 11
-3.381308265435501
 21
-12.20703614741746
 31
0.0
  0
SPLINE
  5
102
330
70
100
AcDbEntity
  8
cutter-1 v5_Sketch1
100
AcDbSpline
210
0.0
220
0.0
230
1.0
 70
    12
 71
     5
 72
    41
 73
    35
 74
     0
 42
0.000000001
 43
0.0000000001
 40
0.0
 40
0.0
 40
0.0
 40
0.0
 40
0.0
 40
0.0
 40
0.0333333333333333
 40
0.0666666666666667
 40
0.1
 40
0.1333333333333333
 40
0.1666666666666666
 40
0.2
 40
0.2333333333333333
 40
0.2666666666666666
 40
0.3
 40
0.3333333333333333
 40
0.3666666666666666
 40
0.4
 40
0.4333333333333333
 40
0.4666666666666666
 40
0.5
 40
0.5333333333333333
 40
0.5666666666666666
 40
0.6
 40
0.6333333333333333
 40
0.6666666666666666
 40
0.7
 40
0.7333333333333333
 40
0.7666666666666666
 40
0.8
 40
0.8333333333333332
 40
0.8666666666666666
 40
0.9
 40
0.9333333333333332
 40
0.9666666666666666
 40
1.0
 40
1.0
 40
1.0
 40
1.0
 40
1.0
 40
1.0
 10
9.200000137090682
 20
2.000000029802322
 30
0.0
 41
1.0
 10
9.181191676789042
 20
2.019073835517728
 30
0.0
 41
1.0
 10
9.145680399932514
 20
2.058044134985736
 30
0.0
 41
1.0
 10
9.09873044205759
 20
2.118967599526357
 30
0.0
 41
1.0
 10
9.048787060593602
 20
2.205144281943496
 30
0.0
 41
1.0
 10
9.007646584626582
 20
2.32086420623855
 30
0.0
 41
1.0
 10
8.988142261694788
 20
2.443769024568276
 30
0.0
 41
1.0
 10
8.990800354033826
 20
2.572142669697683
 30
0.0
 41
1.0
 10
9.016319702509113
 20
2.703080217338208
 30
0.0
 41
1.0
 10
9.065638611595327
 20
2.832066974122674
 30
0.0
 41
1.0
 10
9.139495604277698
 20
2.953393816289224
 30
0.0
 41
1.0
 10
9.237860721350644
 20
3.060777911153945
 30
0.0
 41
1.0
 10
9.359398420132196
 20
3.147910218934285
 30
0.0
 41
1.0
 10
9.500909482495329
 20
3.209033459712685
 30
0.0
 41
1.0
 10
9.656748486192078
 20
3.239517364518717
 30
0.0
 41
1.0
 10
9.818272123442371
 20
3.236438332056716
 30
0.0
 41
1.0
 10
9.975068984233114
 20
3.198775504304248
 30
0.0
 41
1.0
 10
10.11613011366277
 20
3.127632947289742
 30
0.0
 41
1.0
 10
10.23103708596406
 20
3.026476155401181
 30
0.0
 41
1.0
 10
10.31114329880072
 20
2.901384034815926
 30
0.0
 41
1.0
 10
10.35078343565124
 20
2.761329032245641
 30
0.0
 41
1.0
 10
10.34847257678947
 20
2.618448033286891
 30
0.0
 41
1.0
 10
10.30633170732291
 20
2.486070422196725
 30
0.0
 41
1.0
 10
10.22956121979504
 20
2.376828889125417
 30
0.0
 41
1.0
 10
10.12594076521916
 20
2.300657335142705
 30
0.0
 41
1.0
 10
10.00531991907577
 20
2.262997694652242
 30
0.0
 41
1.0
 10
9.879207039238321
 20
2.262405824191667
 30
0.0
 41
1.0
 10
9.759748479661581
 20
2.292216306717273
 30
0.0
 41
1.0
 10
9.658555049748732
 20
2.343115788291892
 30
0.0
 41
1.0
 10
9.585610202563085
 20
2.405327919433002
 30
0.0
 41
1.0
 10
9.548058085162486
 20
2.471052721424687
 30
0.0
 41
1.0
 10
9.548993510185997
 20
2.52341100984554
 30
0.0
 41
1.0
 10
9.567562067747491
 20
2.561976993809306
 30
0.0
 41
1.0
 10
9.587866507808076
 20
2.587377450143875
 30
0.0
 41
1.0
 10
9.600000143051147
 20
2.600000038743019
 30
0.0
 41
1.0
  0
CIRCLE
  5
103
330
70
100
AcDbEntity
  8
cutter-1 v5_Sketch1
100
AcDbCircle
 10
-2.0
 20
8.5
 30
0.0
 40
0.1
  0
CIRCLE
  5
104
330
70
100
AcDbEntity
  8
cutter-1 v5_Sketch1
100
AcDbCircle
 10
-1.5
 20
6.5
 30
0.0
 40
0.1
  0
CIRCLE
  5
105
330
70
100
AcDbEntity
  8
cutter-1 v5_Sketch1
100
AcDbCircle
 10
-3.45667101351356
 20
8.743773684827825
 30
0.0
 40
0.1000000000000002
  0
SPLINE
  5
106
330
70
100
AcDbEntity
  8
cutter-1 v5_Sketch1
100
AcDbSpline
210
0.0
220
0.0
230
1.0
 70
    28
 71
     5
 72
    16
 73
    10
 74
     0
 42
0.000000001
 43
0.0000000001
 40
0.0
 40
0.0
 40
0.0
 40
0.0
 40
0.0
 40
0.0
 40
0.2
 40
0.4
 40
0.6000000000000001
 40
0.8
 40
1.0
 40
1.0
 40
1.0
 40
1.0
 40
1.0
 40
1.0
 10
7.500000111758708
 20
2.600000038743019
 30
0.0
 41
1.0
 10
7.56000011265262
 20
2.600000038742737
 30
0.0
 41
1.0
 10
7.680000114440485
 20
2.600000038742253
 30
0.0
 41
1.0
 10
7.860000117122426
 20
2.600000038741781
 30
0.0
 41
1.0
 10
8.1000001206986
 20
2.600000038741603
 30
0.0
 41
1.0
 10
8.400000125169114
 20
2.60000003874187
 30
0.0
 41
1.0
 10
8.640000128745638
 20
2.600000038742285
 30
0.0
 41
1.0
 10
8.820000131428054
 20
2.600000038742642
 30
0.0
 41
1.0
 10
8.940000133216319
 20
2.600000038742891
 30
0.0
 41
1.0
 10
9.00000013411045
 20
2.600000038743019
 30
0.0
 41
1.0
  0
CIRCLE
  5
107
330
70
100
AcDbEntity
  8
cutter-1 v5_Sketch1
100
AcDbCircle
 10
-0.5
 20
5.5
 30
0.0
 40
0.0999999999999998
  0
SPLINE
  5
108
330
70
100
AcDbEntity
  8
cutter-1 v5_Sketch1
100
AcDbSpline
210
0.0
220
0.0
230
1.0
 70
    12
 71
     5
 72
    51
 73
    45
 74
     0
 42
0.000000001
 43
0.0000000001
 40
0.0
 40
0.0
 40
0.0
 40
0.0
 40
0.0
 40
0.0
 40
0.025
 40
0.05
 40
0.075
 40
0.1
 40
0.125
 40
0.15
 40
0.175
 40
0.2
 40
0.225
 40
0.25
 40
0.275
 40
0.3
 40
0.325
 40
0.35
 40
0.375
 40
0.4000000000000001
 40
0.4250000000000001
 40
0.4500000000000001
 40
0.4750000000000002
 40
0.5000000000000001
 40
0.5250000000000002
 40
0.5500000000000002
 40
0.5750000000000002
 40
0.6000000000000002
 40
0.6250000000000002
 40
0.6500000000000003
 40
0.6750000000000003
 40
0.7000000000000003
 40
0.7250000000000004
 40
0.7500000000000004
 40
0.7750000000000004
 40
0.8000000000000003
 40
0.8250000000000003
 40
0.8500000000000003
 40
0.8750000000000003
 40
0.9000000000000005
 40
0.9250000000000005
 40
0.9500000000000005
 40
0.9750000000000005
 40
1.0
 40
1.0
 40
1.0
 40
1.0
 40
1.0
 40
1.0
 10
7.500000111758708
 20
2.600000038743019
 30
0.0
 41
1.0
 10
7.505510030012016
 20
2.64848808026595
 30
0.0
 41
1.0
 10
7.519280580036167
 20
2.744390980022831
 30
0.0
 41
1.0
 10
7.548188521238667
 20
2.885025746093436
 30
0.0
 41
1.0
 10
7.603253688921242
 20
3.066093339769033
 30
0.0
 41
1.0
 10
7.69953826515631
 20
3.281457537050545
 30
0.0
 41
1.0
 10
7.822863066731111
 20
3.485238652828686
 30
0.0
 41
1.0
 10
7.972265545864631
 20
3.6762498633394
 30
0.0
 41
1.0
 10
8.146035686440448
 20
3.852575284045435
 30
0.0
 41
1.0
 10
8.341457056794991
 20
4.011329381731161
 30
0.0
 41
1.0
 10
8.554720152852654
 20
4.148672349747013
 30
0.0
 41
1.0
 10
8.781299916025322
 20
4.260520447598239
 30
0.0
 41
1.0
 10
9.016239107737474
 20
4.343109488752592
 30
0.0
 41
1.0
 10
9.254472654942649
 20
4.393653448409373
 30
0.0
 41
1.0
 10
9.491117220815882
 20
4.410888381385475
 30
0.0
 41
1.0
 10
9.721814031540706
 20
4.395866949090597
 30
0.0
 41
1.0
 10
9.942917352095186
 20
4.351985091499106
 30
0.0
 41
1.0
 10
10.15143144194614
 20
4.283755211073169
 30
0.0
 41
1.0
 10
10.34501029823323
 20
4.195858138214923
 30
0.0
 41
1.0
 10
10.52193112460836
 20
4.092120788259805
 30
0.0
 41
1.0
 10
10.68109353549509
 20
3.974444326213889
 30
0.0
 41
1.0
 10
10.82198107047243
 20
3.841977397625795
 30
0.0
 41
1.0
 10
10.94432650882972
 20
3.692687908774839
 30
0.0
 41
1.0
 10
11.04778577213957
 20
3.524799199875808
 30
0.0
 41
1.0
 10
11.13164451424141
 20
3.338138284065812
 30
0.0
 41
1.0
 10
11.19442878407237
 20
3.135860732417382
 30
0.0
 41
1.0
 10
11.23383051852278
 20
2.924915114385491
 30
0.0
 41
1.0
 10
11.24725197001489
 20
2.714038513312649
 30
0.0
 41
1.0
 10
11.23222583826532
 20
2.512220441150355
 30
0.0
 41
1.0
 10
11.18686881586976
 20
2.32713194565093
 30
0.0
 41
1.0
 10
11.11036821778152
 20
2.163206213126904
 30
0.0
 41
1.0
 10
11.00330959679148
 20
2.021102191419314
 30
0.0
 41
1.0
 10
10.86771438105966
 20
1.899570856039456
 30
0.0
 41
1.0
 10
10.70715285002383
 20
1.796761517892689
 30
0.0
 41
1.0
 10
10.52683318895342
 20
1.711741075541555
 30
0.0
 41
1.0
 10
10.33371573941529
 20
1.645942326443072
 30
0.0
 41
1.0
 10
10.13567043828777
 20
1.602409108786597
 30
0.0
 41
1.0
 10
9.940606239225559
 20
1.584982977179035
 30
0.0
 41
1.0
 10
9.755655546940356
 20
1.597550028622841
 30
0.0
 41
1.0
 10
9.586232171604446
 20
1.643180690888554
 30
0.0
 41
1.0
 10
9.435447857612313
 20
1.723560738780313
 30
0.0
 41
1.0
 10
9.330957029142052
 20
1.816287724669941
 30
0.0
 41
1.0
 10
9.261871796521408
 20
1.901901141202449
 30
0.0
 41
1.0
 10
9.219937034017544
 20
1.966111321559611
 30
0.0
 41
1.0
 10
9.200000137090682
 20
2.000000029802322
 30
0.0
 41
1.0
  0
CIRCLE
  5
109
330
70
100
AcDbEntity
  8
cutter-1 v5_Sketch1
100
AcDbCircle
 10
0.5
 20
6.5
 30
0.0
 40
0.0999999999999999
  0
ENDSEC
  0
SECTION
  2
OBJECTS
  0
DICTIONARY
  5
C
330
0
100
AcDbDictionary
281
     1
  3
ACAD_COLOR
350
63
  3
ACAD_DETAILVIEWSTYLE
350
6A
  3
ACAD_GROUP
350
D
  3
ACAD_LAYOUT
350
62
  3
ACAD_MATERIAL
350
10
  3
ACAD_MLEADERSTYLE
350
66
  3
ACAD_MLINESTYLE
350
5F
  3
ACAD_PLOTSETTINGS
350
61
  3
ACAD_PLOTSTYLENAME
350
E
  3
ACAD_SCALELIST
350
42
  3
ACAD_SECTIONVIEWSTYLE
350
68
  3
ACAD_TABLESTYLE
350
64
  3
ACAD_VISUALSTYLE
350
29
  3
ACDB_RECOMPOSE_DATA
350
112
  3
AcDbVariableDictionary
350
10A
  0
DICTIONARY
  5
63
102
{ACAD_REACTORS
330
C
102
}
330
C
100
AcDbDictionary
281
     1
  0
DICTIONARY
  5
6A
102
{ACAD_REACTORS
330
C
102
}
330
C
100
AcDbDictionary
281
     1
  3
Imperial24
350
6B
  0
DICTIONARY
  5
D
102
{ACAD_REACTORS
330
C
102
}
330
C
100
AcDbDictionary
281
     1
  0
DICTIONARY
  5
62
102
{ACAD_REACTORS
330
C
102
}
330
C
100
AcDbDictionary
281
     1
  3
Layout1
350
6F
  3
Layout2
350
77
  3
Model
350
73
  0
DICTIONARY
  5
10
102
{ACAD_REACTORS
330
C
102
}
330
C
100
AcDbDictionary
281
     1
  3
ByBlock
350
19
  3
ByLayer
350
11
  3
Global
350
21
  0
DICTIONARY
  5
66
102
{ACAD_REACTORS
330
C
102
}
330
C
100
AcDbDictionary
281
     1
  3
Standard
350
67
  0
DICTIONARY
  5
5F
102
{ACAD_REACTORS
330
C
102
}
330
C
100
AcDbDictionary
281
     1
  3
Standard
350
60
  0
DICTIONARY
  5
61
102
{ACAD_REACTORS
330
C
102
}
330
C
100
AcDbDictionary
281
     1
  0
ACDBDICTIONARYWDFLT
  5
E
102
{ACAD_REACTORS
330
C
102
}
330
C
100
AcDbDictionary
281
     1
  3
Normal
350
F
100
AcDbDictionaryWithDefault
340
F
  0
DICTIONARY
  5
42
102
{ACAD_REACTORS
330
C
102
}
330
C
100
AcDbDictionary
281
     1
  3
A0
350
43
  3
A1
350
44
  3
A2
350
45
  3
A3
350
46
  3
A4
350
47
  3
A5
350
48
  3
A6
350
49
  3
A7
350
4A
  3
A8
350
4B
  3
A9
350
4C
  3
B0
350
4D
  3
B1
350
4E
  3
B2
350
4F
  3
B3
350
50
  3
B4
350
51
  3
B5
350
52
  3
B6
350
53
  0
DICTIONARY
  5
68
102
{ACAD_REACTORS
330
C
102
}
330
C
100
AcDbDictionary
281
     1
  3
Imperial24
350
69
  0
DICTIONARY
  5
64
102
{ACAD_REACTORS
330
C
102
}
330
C
100
AcDbDictionary
281
     1
  3
Standard
350
65
  0
DICTIONARY
  5
29
102
{ACAD_REACTORS
330
C
102
}
330
C
100
AcDbDictionary
281
     1
  3
2dWireframe
350
2F
  3
Basic
350
2E
  3
Brighten
350
35
  3
ColorChange
350
39
  3
Conceptual
350
32
  3
Dim
350
34
  3
EdgeColorOff
350
41
  3
Facepattern
350
38
  3
Flat
350
2A
  3
FlatWithEdges
350
2B
  3
Gouraud
350
2C
  3
GouraudWithEdges
350
2D
  3
Hidden
350
31
  3
JitterOff
350
3F
  3
Linepattern
350
37
  3
OverhangOff
350
40
  3
Realistic
350
33
  3
Shaded
350
3E
  3
Shaded with edges
350
3D
  3
Shades of Gray
350
3A
  3
Sketchy
350
3B
  3
Thicken
350
36
  3
Wireframe
350
30
  3
X-Ray
350
3C
  0
XRECORD
  5
112
102
{ACAD_REACTORS
330
C
102
}
330
C
100
AcDbXrecord
280
     1
 90
        1
330
65
  0
DICTIONARY
  5
10A
102
{ACAD_REACTORS
330
C
102
}
330
C
100
AcDbDictionary
281
     1
  3
CANNOSCALE
350
10F
  3
CMLEADERSTYLE
350
10C
  3
CTABLESTYLE
350
10B
  3
CVIEWDETAILSTYLE
350
10D
  3
CVIEWSECTIONSTYLE
350
10E
  0
ACDBDETAILVIEWSTYLE
  5
6B
102
{ACAD_XDICTIONARY
360
115
102
}
102
{ACAD_REACTORS
330
6A
102
}
330
6A
100
AcDbModelDocViewStyle
 70
     0
  3
Imperial24
290
     0
100
AcDbDetailViewStyle
 70
     0
 71
     0
 90
        3
 71
     1
340
55
 62
   256
 40
0.24
340
0
 62
   256
 40
0.24
300

 40
0.36
280
     3
 71
     2
340
5D
 90
       25
 62
   256
 71
     3
340
55
 62
   256
 40
0.24
 90
        1
 40
0.75
 90
        1
300
%<\AcVar ViewType \f "%tc1">% %<\AcVar ViewDetailId>%\PSCALE %<\AcVar ViewScale \f "%sn">%
 71
     4
340
5D
 90
       25
 62
   256
340
5D
 90
       25
 62
   256
280
     0
  0
LAYOUT
  5
6F
102
{ACAD_REACTORS
330
62
102
}
330
62
100
AcDbPlotSettings
  1

  2

  4

  6

 40
0.0
 41
0.0
 42
0.0
 43
0.0
 44
0.0
 45
0.0
 46
0.0
 47
0.0
 48
0.0
 49
0.0
140
0.0
141
0.0
142
1.0
143
1.0
 70
   688
 72
     0
 73
     0
 74
     5
  7

 75
    16
147
1.0
 76
     0
 77
     2
 78
   300
148
0.0
149
0.0
100
AcDbLayout
  1
Layout1
 70
     1
 71
     1
 10
0.0
 20
0.0
 11
12.0
 21
9.0
 12
0.0
 22
0.0
 32
0.0
 14
0.0
 24
0.0
 34
0.0
 15
0.0
 25
0.0
 35
0.0
146
0.0
 13
0.0
 23
0.0
 33
0.0
 16
1.0
 26
0.0
 36
0.0
 17
0.0
 27
1.0
 37
0.0
 76
     0
330
6C
  0
LAYOUT
  5
77
102
{ACAD_REACTORS
330
62
102
}
330
62
100
AcDbPlotSettings
  1

  2

  4

  6

 40
0.0
 41
0.0
 42
0.0
 43
0.0
 44
0.0
 45
0.0
 46
0.0
 47
0.0
 48
0.0
 49
0.0
140
0.0
141
0.0
142
1.0
143
1.0
 70
   688
 72
     0
 73
     0
 74
     5
  7

 75
    16
147
1.0
 76
     0
 77
     2
 78
   300
148
0.0
149
0.0
100
AcDbLayout
  1
Layout2
 70
     1
 71
     2
 10
0.0
 20
0.0
 11
12.0
 21
9.0
 12
0.0
 22
0.0
 32
0.0
 14
0.0
 24
0.0
 34
0.0
 15
0.0
 25
0.0
 35
0.0
146
0.0
 13
0.0
 23
0.0
 33
0.0
 16
1.0
 26
0.0
 36
0.0
 17
0.0
 27
1.0
 37
0.0
 76
     0
330
74
  0
LAYOUT
  5
73
102
{ACAD_REACTORS
330
62
102
}
330
62
100
AcDbPlotSettings
  1

  2

  4

  6

 40
0.0
 41
0.0
 42
0.0
 43
0.0
 44
0.0
 45
0.0
 46
0.0
 47
0.0
 48
0.0
 49
0.0
140
0.0
141
0.0
142
1.0
143
1.0
 70
  1712
 72
     0
 73
     0
 74
     0
  7

 75
     0
147
1.0
 76
     0
 77
     2
 78
   300
148
0.0
149
0.0
100
AcDbLayout
  1
Model
 70
     1
 71
     0
 10
0.0
 20
0.0
 11
12.0
 21
9.0
 12
0.0
 22
0.0
 32
0.0
 14
0.0
 24
0.0
 34
0.0
 15
0.0
 25
0.0
 35
0.0
146
0.0
 13
0.0
 23
0.0
 33
0.0
 16
1.0
 26
0.0
 36
0.0
 17
0.0
 27
1.0
 37
0.0
 76
     0
330
70
  0
MATERIAL
  5
19
102
{ACAD_XDICTIONARY
360
1A
102
}
102
{ACAD_REACTORS
330
10
102
}
330
10
100
AcDbMaterial
  1
ByBlock
 72
     0
 43
0.0208333333333333
 43
0.0
 43
0.0
 43
0.0
 43
0.0
 43
0.0208333333333333
 43
0.0
 43
0.0
 43
0.0
 43
0.0
 43
1.0
 43
0.0
 43
0.0
 43
0.0
 43
0.0
 43
1.0
 77
     0
 47
0.0208333333333333
 47
0.0
 47
0.0
 47
0.0
 47
0.0
 47
0.0208333333333333
 47
0.0
 47
0.0
 47
0.0
 47
0.0
 47
1.0
 47
0.0
 47
0.0
 47
0.0
 47
0.0
 47
1.0
171
     0
 49
0.0208333333333333
 49
0.0
 49
0.0
 49
0.0
 49
0.0
 49
0.0208333333333333
 49
0.0
 49
0.0
 49
0.0
 49
0.0
 49
1.0
 49
0.0
 49
0.0
 49
0.0
 49
0.0
 49
1.0
175
     0
142
0.0208333333333333
142
0.0
142
0.0
142
0.0
142
0.0
142
0.0208333333333333
142
0.0
142
0.0
142
0.0
142
0.0
142
1.0
142
0.0
142
0.0
142
0.0
142
0.0
142
1.0
179
     0
144
0.0208333333333333
144
0.0
144
0.0
144
0.0
144
0.0
144
0.0208333333333333
144
0.0
144
0.0
144
0.0
144
0.0
144
1.0
144
0.0
144
0.0
144
0.0
144
0.0
144
1.0
147
0.0208333333333333
147
0.0
147
0.0
147
0.0
147
0.0
147
0.0208333333333333
147
0.0
147
0.0
147
0.0
147
0.0
147
1.0
147
0.0
147
0.0
147
0.0
147
0.0
147
1.0
  0
MATERIAL
  5
11
102
{ACAD_XDICTIONARY
360
12
102
}
102
{ACAD_REACTORS
330
10
102
}
330
10
100
AcDbMaterial
  1
ByLayer
 72
     0
 43
0.0208333333333333
 43
0.0
 43
0.0
 43
0.0
 43
0.0
 43
0.0208333333333333
 43
0.0
 43
0.0
 43
0.0
 43
0.0
 43
1.0
 43
0.0
 43
0.0
 43
0.0
 43
0.0
 43
1.0
 77
     0
 47
0.0208333333333333
 47
0.0
 47
0.0
 47
0.0
 47
0.0
 47
0.0208333333333333
 47
0.0
 47
0.0
 47
0.0
 47
0.0
 47
1.0
 47
0.0
 47
0.0
 47
0.0
 47
0.0
 47
1.0
171
     0
 49
0.0208333333333333
 49
0.0
 49
0.0
 49
0.0
 49
0.0
 49
0.0208333333333333
 49
0.0
 49
0.0
 49
0.0
 49
0.0
 49
1.0
 49
0.0
 49
0.0
 49
0.0
 49
0.0
 49
1.0
175
     0
142
0.0208333333333333
142
0.0
142
0.0
142
0.0
142
0.0
142
0.0208333333333333
142
0.0
142
0.0
142
0.0
142
0.0
142
1.0
142
0.0
142
0.0
142
0.0
142
0.0
142
1.0
179
     0
144
0.0208333333333333
144
0.0
144
0.0
144
0.0
144
0.0
144
0.0208333333333333
144
0.0
144
0.0
144
0.0
144
0.0
144
1.0
144
0.0
144
0.0
144
0.0
144
0.0
144
1.0
147
0.0208333333333333
147
0.0
147
0.0
147
0.0
147
0.0
147
0.0208333333333333
147
0.0
147
0.0
147
0.0
147
0.0
147
1.0
147
0.0
147
0.0
147
0.0
147
0.0
147
1.0
  0
MATERIAL
  5
21
102
{ACAD_XDICTIONARY
360
22
102
}
102
{ACAD_REACTORS
330
10
102
}
330
10
100
AcDbMaterial
  1
Global
 72
     0
 43
0.0208333333333333
 43
0.0
 43
0.0
 43
0.0
 43
0.0
 43
0.0208333333333333
 43
0.0
 43
0.0
 43
0.0
 43
0.0
 43
1.0
 43
0.0
 43
0.0
 43
0.0
 43
0.0
 43
1.0
 77
     0
 47
0.0208333333333333
 47
0.0
 47
0.0
 47
0.0
 47
0.0
 47
0.0208333333333333
 47
0.0
 47
0.0
 47
0.0
 47
0.0
 47
1.0
 47
0.0
 47
0.0
 47
0.0
 47
0.0
 47
1.0
171
     0
 49
0.0208333333333333
 49
0.0
 49
0.0
 49
0.0
 49
0.0
 49
0.0208333333333333
 49
0.0
 49
0.0
 49
0.0
 49
0.0
 49
1.0
 49
0.0
 49
0.0
 49
0.0
 49
0.0
 49
1.0
175
     0
142
0.0208333333333333
142
0.0
142
0.0
142
0.0
142
0.0
142
0.0208333333333333
142
0.0
142
0.0
142
0.0
142
0.0
142
1.0
142
0.0
142
0.0
142
0.0
142
0.0
142
1.0
179
     0
144
0.0208333333333333
144
0.0
144
0.0
144
0.0
144
0.0
144
0.0208333333333333
144
0.0
144
0.0
144
0.0
144
0.0
144
1.0
144
0.0
144
0.0
144
0.0
144
0.0
144
1.0
147
0.0208333333333333
147
0.0
147
0.0
147
0.0
147
0.0
147
0.0208333333333333
147
0.0
147
0.0
147
0.0
147
0.0
147
1.0
147
0.0
147
0.0
147
0.0
147
0.0
147
1.0
  0
MLEADERSTYLE
  5
67
102
{ACAD_REACTORS
330
66
102
}
330
66
100
AcDbMLeaderStyle
179
     2
170
     2
171
     1
172
     0
 90
        2
 40
0.0
 41
0.0
173
     1
 91
-1056964608
340
5B
 92
       -2
290
     1
 42
0.09
291
     1
 43
0.36
  3
Standard
 44
0.18
300

342
55
174
     1
178
     6
175
     1
176
     0
 93
-1056964608
 45
0.18
292
     0
297
     0
 46
0.18
 94
-1056964608
 47
1.0
 49
1.0
140
1.0
293
     1
141
0.0
294
     1
177
     0
142
1.0
295
     0
296
     0
143
0.125
271
     0
272
     9
273
     9
298
     1
  0
MLINESTYLE
  5
60
102
{ACAD_REACTORS
330
5F
102
}
330
5F
100
AcDbMlineStyle
  2
STANDARD
 70
     0
  3

 62
   256
 51
90.0
 52
90.0
 71
     2
 49
0.5
 62
   256
  6
BYLAYER
 49
-0.5
 62
   256
  6
BYLAYER
  0
ACDBPLACEHOLDER
  5
F
102
{ACAD_REACTORS
330
E
102
}
330
E
  0
SCALE
  5
43
102
{ACAD_REACTORS
330
42
102
}
330
42
100
AcDbScale
 70
     0
300
1:1
140
1.0
141
1.0
290
     1
  0
SCALE
  5
44
102
{ACAD_REACTORS
330
42
102
}
330
42
100
AcDbScale
 70
     0
300
1/128" = 1'-0"
140
0.0078125
141
12.0
290
     0
  0
SCALE
  5
45
102
{ACAD_REACTORS
330
42
102
}
330
42
100
AcDbScale
 70
     0
300
1/64" = 1'-0"
140
0.015625
141
12.0
290
     0
  0
SCALE
  5
46
102
{ACAD_REACTORS
330
42
102
}
330
42
100
AcDbScale
 70
     0
300
1/32" = 1'-0"
140
0.03125
141
12.0
290
     0
  0
SCALE
  5
47
102
{ACAD_REACTORS
330
42
102
}
330
42
100
AcDbScale
 70
     0
300
1/16" = 1'-0"
140
0.0625
141
12.0
290
     0
  0
SCALE
  5
48
102
{ACAD_REACTORS
330
42
102
}
330
42
100
AcDbScale
 70
     0
300
3/32" = 1'-0"
140
0.09375
141
12.0
290
     0
  0
SCALE
  5
49
102
{ACAD_REACTORS
330
42
102
}
330
42
100
AcDbScale
 70
     0
300
1/8" = 1'-0"
140
0.125
141
12.0
290
     0
  0
SCALE
  5
4A
102
{ACAD_REACTORS
330
42
102
}
330
42
100
AcDbScale
 70
     0
300
3/16" = 1'-0"
140
0.1875
141
12.0
290
     0
  0
SCALE
  5
4B
102
{ACAD_REACTORS
330
42
102
}
330
42
100
AcDbScale
 70
     0
300
1/4" = 1'-0"
140
0.25
141
12.0
290
     0
  0
SCALE
  5
4C
102
{ACAD_REACTORS
330
42
102
}
330
42
100
AcDbScale
 70
     0
300
3/8" = 1'-0"
140
0.375
141
12.0
290
     0
  0
SCALE
  5
4D
102
{ACAD_REACTORS
330
42
102
}
330
42
100
AcDbScale
 70
     0
300
1/2" = 1'-0"
140
0.5
141
12.0
290
     0
  0
SCALE
  5
4E
102
{ACAD_REACTORS
330
42
102
}
330
42
100
AcDbScale
 70
     0
300
3/4" = 1'-0"
140
0.75
141
12.0
290
     0
  0
SCALE
  5
4F
102
{ACAD_REACTORS
330
42
102
}
330
42
100
AcDbScale
 70
     0
300
1" = 1'-0"
140
1.0
141
12.0
290
     0
  0
SCALE
  5
50
102
{ACAD_REACTORS
330
42
102
}
330
42
100
AcDbScale
 70
     0
300
1-1/2" = 1'-0"
140
1.5
141
12.0
290
     0
  0
SCALE
  5
51
102
{ACAD_REACTORS
330
42
102
}
330
42
100
AcDbScale
 70
     0
300
3" = 1'-0"
140
3.0
141
12.0
290
     0
  0
SCALE
  5
52
102
{ACAD_REACTORS
330
42
102
}
330
42
100
AcDbScale
 70
     0
300
6" = 1'-0"
140
6.0
141
12.0
290
     0
  0
SCALE
  5
53
102
{ACAD_REACTORS
330
42
102
}
330
42
100
AcDbScale
 70
     0
300
1'-0" = 1'-0"
140
12.0
141
12.0
290
     0
  0
ACDBSECTIONVIEWSTYLE
  5
69
102
{ACAD_XDICTIONARY
360
113
102
}
102
{ACAD_REACTORS
330
68
102
}
330
68
100
AcDbModelDocViewStyle
 70
     0
  3
Imperial24
290
     0
100
AcDbSectionViewStyle
 70
     0
 71
     0
 90
       78
 71
     1
340
55
 62
   256
 40
0.24
340
0
340
0
 62
   256
 40
0.24
300
I, O, Q, S, X, Z
 40
0.48
 90
        3
 40
0.18
 90
        1
 71
     2
340
5D
 90
       25
 62
   256
340
5D
 90
       50
 62
   256
 40
0.24
 40
0.0
 40
0.24
 71
     3
340
55
 62
   256
 40
0.24
 90
        1
 40
0.75
 90
        1
300
%<\AcVar ViewType \f "%tc1">% %<\AcVar ViewSectionStartId>%-%<\AcVar ViewSectionEndId>%\PSCALE %<\AcVar ViewScale \f "%sn">%
 71
     4
 62
   256
 62
   257
300
ANSI31
 40
1.0
 90
        0
290
     0
290
     0
 90
        6
 40
0.0
 40
1.570796326794896
 40
0.2617993877991494
 40
1.308996938995747
 40
-0.2617993877991494
 40
1.832595714594046
  0
TABLESTYLE
  5
65
102
{ACAD_XDICTIONARY
360
110
102
}
102
{ACAD_REACTORS
330
64
102
}
330
64
100
AcDbTableStyle
280
     0
  3
Standard
 70
     0
 71
     0
 40
0.06
 41
0.06
280
     0
281
     0
  7
Standard
140
0.18
170
     2
 62
     0
 63
     7
283
     0
 90
      512
 91
        0
  1

274
    -2
284
     1
 64
     0
275
    -2
285
     1
 65
     0
276
    -2
286
     1
 66
     0
277
    -2
287
     1
 67
     0
278
    -2
288
     1
 68
     0
279
    -2
289
     1
 69
     0
  7
Standard
140
0.25
170
     5
 62
     0
 63
     7
283
     0
 90
      512
 91
        0
  1

274
    -2
284
     1
 64
     0
275
    -2
285
     1
 65
     0
276
    -2
286
     1
 66
     0
277
    -2
287
     1
 67
     0
278
    -2
288
     1
 68
     0
279
    -2
289
     1
 69
     0
  7
Standard
140
0.18
170
     5
 62
     0
 63
     7
283
     0
 90
      512
 91
        0
  1

274
    -2
284
     1
 64
     0
275
    -2
285
     1
 65
     0
276
    -2
286
     1
 66
     0
277
    -2
287
     1
 67
     0
278
    -2
288
     1
 68
     0
279
    -2
289
     1
 69
     0
  0
VISUALSTYLE
  5
2F
102
{ACAD_REACTORS
330
29
102
}
330
29
100
AcDbVisualStyle
  2
2dWireframe
 70
     4
177
     3
291
     0
 70
    58
 90
        0
176
     1
 90
        2
176
     1
 90
        0
176
     1
 90
        0
176
     1
 40
0.6
176
     1
 40
30.0
176
     1
 62
     7
420
 16777215
176
     1
 90
        1
176
     1
 90
        4
176
     1
 62
     7
176
     1
 62
   257
176
     1
 90
        1
176
     1
 90
        1
176
     1
 40
1.0
176
     1
 90
        0
176
     1
 62
   257
176
     1
 40
1.0
176
     1
 90
        1
176
     1
 90
        6
176
     1
 90
        2
176
     1
 62
     7
176
     1
 90
        5
176
     1
 90
        0
176
     1
 90
        0
176
     1
290
     0
176
     1
 90
        1
176
     1
 40
0.0
176
     1
 90
        0
176
     1
290
     1
176
     1
290
     1
176
     1
290
     0
176
     1
290
     0
176
     1
290
     0
176
     1
290
     0
176
     1
290
     0
176
     1
290
     0
176
     1
290
     0
176
     1
 90
       50
176
     1
 40
0.0
176
     1
 40
1.0
176
     1
 90
        0
176
     1
 62
    18
420
        0
176
     1
 90
       50
176
     1
 90
        3
176
     1
 62
     5
420
      255
176
     1
290
     0
176
     1
 90
       50
176
     1
 90
       50
176
     1
 90
       50
176
     1
290
     0
176
     1
 90
       50
176
     1
 62
   256
176
     0
 40
1.0
176
     0
 90
        2
176
     1
  1
strokes_ogs.tif
176
     1
290
     0
176
     1
 40
1.0
176
     1
 40
1.0
176
     1
1001
ACAD
1000
AcDbSavedByObjectVersion
1070
     0
  0
VISUALSTYLE
  5
2E
102
{ACAD_REACTORS
330
29
102
}
330
29
100
AcDbVisualStyle
  2
Basic
 70
     7
177
     3
291
     1
 70
    58
 90
        1
176
     1
 90
        0
176
     1
 90
        1
176
     1
 90
        0
176
     1
 40
0.6
176
     1
 40
30.0
176
     1
 62
     7
420
 16777215
176
     1
 90
        0
176
     1
 90
        4
176
     1
 62
     7
176
     1
 62
   257
176
     1
 90
        1
176
     1
 90
        1
176
     1
 40
1.0
176
     1
 90
        8
176
     1
 62
     7
176
     1
 40
1.0
176
     1
 90
        1
176
     1
 90
        6
176
     1
 90
        2
176
     1
 62
     7
176
     1
 90
        5
176
     1
 90
        0
176
     1
 90
        0
176
     1
290
     0
176
     1
 90
        1
176
     1
 40
0.0
176
     1
 90
        0
176
     1
290
     0
176
     1
290
     1
176
     1
290
     1
176
     1
290
     0
176
     1
290
     0
176
     1
290
     0
176
     1
290
     0
176
     1
290
     0
176
     1
290
     0
176
     1
 90
       50
176
     1
 40
0.0
176
     1
 40
1.0
176
     1
 90
        0
176
     1
 62
    18
420
        0
176
     1
 90
       50
176
     1
 90
        3
176
     1
 62
     5
420
      255
176
     1
290
     0
176
     1
 90
       50
176
     1
 90
       50
176
     1
 90
       50
176
     1
290
     0
176
     1
 90
       50
176
     1
 62
   256
176
     0
 40
1.0
176
     0
 90
        2
176
     1
  1
strokes_ogs.tif
176
     1
290
     0
176
     1
 40
1.0
176
     1
 40
1.0
176
     1
1001
ACAD
1000
AcDbSavedByObjectVersion
1070
     0
  0
VISUALSTYLE
  5
35
102
{ACAD_REACTORS
330
29
102
}
330
29
100
AcDbVisualStyle
  2
Brighten
 70
    12
177
     3
291
     1
 70
    58
 90
        2
176
     1
 90
        2
176
     1
 90
        0
176
     1
 90
        0
176
     1
 40
0.6
176
     1
 40
30.0
176
     1
 62
     7
420
 16777215
176
     1
 90
        1
176
     1
 90
        4
176
     1
 62
     7
176
     1
 62
   257
176
     1
 90
        1
176
     1
 90
        1
176
     1
 40
1.0
176
     1
 90
        8
176
     1
 62
     7
176
     1
 40
1.0
176
     1
 90
        1
176
     1
 90
        6
176
     1
 90
        2
176
     1
 62
     7
176
     1
 90
        5
176
     1
 90
        0
176
     1
 90
        0
176
     1
290
     0
176
     1
 90
        1
176
     1
 40
50.0
176
     1
 90
        0
176
     1
290
     0
176
     1
290
     1
176
     1
290
     1
176
     1
290
     0
176
     1
290
     0
176
     1
290
     0
176
     1
290
     0
176
     1
290
     0
176
     1
290
     0
176
     1
 90
       50
176
     1
 40
0.0
176
     1
 40
1.0
176
     1
 90
        0
176
     1
 62
    18
420
        0
176
     1
 90
       50
176
     1
 90
        3
176
     1
 62
     5
420
      255
176
     1
290
     0
176
     1
 90
       50
176
     1
 90
       50
176
     1
 90
       50
176
     1
290
     0
176
     1
 90
       50
176
     1
 62
   256
176
     0
 40
1.0
176
     0
 90
        2
176
     1
  1
strokes_ogs.tif
176
     1
290
     0
176
     1
 40
1.0
176
     1
 40
1.0
176
     1
1001
ACAD
1000
AcDbSavedByObjectVersion
1070
     0
  0
VISUALSTYLE
  5
39
102
{ACAD_REACTORS
330
29
102
}
330
29
100
AcDbVisualStyle
  2
ColorChange
 70
    16
177
     3
291
     1
 70
    58
 90
        2
176
     1
 90
        2
176
     1
 90
        3
176
     1
 90
        0
176
     1
 40
0.6
176
     1
 40
30.0
176
     1
 62
     8
420
  8421504
176
     1
 90
        1
176
     1
 90
        4
176
     1
 62
     7
176
     1
 62
   257
176
     1
 90
        1
176
     1
 90
        1
176
     1
 40
1.0
176
     1
 90
        8
176
     1
 62
     8
420
  8421504
176
     1
 40
1.0
176
     1
 90
        1
176
     1
 90
        6
176
     1
 90
        2
176
     1
 62
     7
176
     1
 90
        5
176
     1
 90
        0
176
     1
 90
        0
176
     1
290
     0
176
     1
 90
        1
176
     1
 40
0.0
176
     1
 90
        0
176
     1
290
     0
176
     1
290
     1
176
     1
290
     1
176
     1
290
     0
176
     1
290
     0
176
     1
290
     0
176
     1
290
     0
176
     1
290
     0
176
     1
290
     0
176
     1
 90
       50
176
     1
 40
0.0
176
     1
 40
1.0
176
     1
 90
        0
176
     1
 62
    18
420
        0
176
     1
 90
       50
176
     1
 90
        3
176
     1
 62
     5
420
      255
176
     1
290
     0
176
     1
 90
       50
176
     1
 90
       50
176
     1
 90
       50
176
     1
290
     0
176
     1
 90
       50
176
     1
 62
   256
176
     0
 40
1.0
176
     0
 90
        2
176
     1
  1
strokes_ogs.tif
176
     1
290
     0
176
     1
 40
1.0
176
     1
 40
1.0
176
     1
1001
ACAD
1000
AcDbSavedByObjectVersion
1070
     0
  0
VISUALSTYLE
  5
32
102
{ACAD_REACTORS
330
29
102
}
330
29
100
AcDbVisualStyle
  2
Conceptual
 70
     9
177
     3
291
     0
 70
    58
 90
        3
176
     1
 90
        2
176
     1
 90
        0
176
     1
 90
        0
176
     1
 40
0.6
176
     1
 40
30.0
176
     1
 62
     7
420
 16777215
176
     1
 90
        2
176
     1
 90
        2
176
     1
 62
     7
176
     1
 62
   257
176
     1
 90
        1
176
     1
 90
        1
176
     1
 40
179.0
176
     1
 90
        8
176
     1
 62
     7
176
     1
 40
1.0
176
     1
 90
        1
176
     1
 90
        6
176
     1
 90
        2
176
     1
 62
     7
176
     1
 90
        3
176
     1
 90
        0
176
     1
 90
        0
176
     1
290
     0
176
     1
 90
        1
176
     1
 40
0.0
176
     1
 90
        0
176
     1
290
     0
176
     1
290
     1
176
     1
290
     1
176
     1
290
     0
176
     1
290
     0
176
     1
290
     0
176
     1
290
     0
176
     1
290
     0
176
     1
290
     0
176
     1
 90
       50
176
     1
 40
0.0
176
     1
 40
1.0
176
     1
 90
        0
176
     1
 62
    18
420
        0
176
     1
 90
       50
176
     1
 90
        3
176
     1
 62
     5
420
      255
176
     1
290
     0
176
     1
 90
       50
176
     1
 90
       50
176
     1
 90
       50
176
     1
290
     0
176
     1
 90
       50
176
     1
 62
   256
176
     0
 40
1.0
176
     0
 90
        2
176
     1
  1
strokes_ogs.tif
176
     1
290
     0
176
     1
 40
1.0
176
     1
 40
1.0
176
     1
1001
ACAD
1000
AcDbSavedByObjectVersion
1070
     0
  0
VISUALSTYLE
  5
34
102
{ACAD_REACTORS
330
29
102
}
330
29
100
AcDbVisualStyle
  2
Dim
 70
    11
177
     3
291
     1
 70
    58
 90
        2
176
     1
 90
        2
176
     1
 90
        0
176
     1
 90
        0
176
     1
 40
0.6
176
     1
 40
30.0
176
     1
 62
     7
420
 16777215
176
     1
 90
        1
176
     1
 90
        4
176
     1
 62
     7
176
     1
 62
   257
176
     1
 90
        1
176
     1
 90
        1
176
     1
 40
1.0
176
     1
 90
        8
176
     1
 62
     7
176
     1
 40
1.0
176
     1
 90
        1
176
     1
 90
        6
176
     1
 90
        2
176
     1
 62
     7
176
     1
 90
        5
176
     1
 90
        0
176
     1
 90
        0
176
     1
290
     0
176
     1
 90
        1
176
     1
 40
-50.0
176
     1
 90
        0
176
     1
290
     0
176
     1
290
     1
176
     1
290
     1
176
     1
290
     0
176
     1
290
     0
176
     1
290
     0
176
     1
290
     0
176
     1
290
     0
176
     1
290
     0
176
     1
 90
       50
176
     1
 40
0.0
176
     1
 40
1.0
176
     1
 90
        0
176
     1
 62
    18
420
        0
176
     1
 90
       50
176
     1
 90
        3
176
     1
 62
     5
420
      255
176
     1
290
     0
176
     1
 90
       50
176
     1
 90
       50
176
     1
 90
       50
176
     1
290
     0
176
     1
 90
       50
176
     1
 62
   256
176
     0
 40
1.0
176
     0
 90
        2
176
     1
  1
strokes_ogs.tif
176
     1
290
     0
176
     1
 40
1.0
176
     1
 40
1.0
176
     1
1001
ACAD
1000
AcDbSavedByObjectVersion
1070
     0
  0
VISUALSTYLE
  5
41
102
{ACAD_REACTORS
330
29
102
}
330
29
100
AcDbVisualStyle
  2
EdgeColorOff
 70
    22
177
     3
291
     1
 70
    58
 90
        2
176
     0
 90
        2
176
     0
 90
        0
176
     0
 90
        0
176
     0
 40
0.6
176
     0
 40
30.0
176
     0
 62
     7
420
 16777215
176
     0
 90
        1
176
     0
 90
        4
176
     0
 62
     7
176
     0
 62
   257
176
     0
 90
        1
176
     0
 90
        1
176
     0
 40
1.0
176
     0
 90
        8
176
     2
 62
     7
176
     0
 40
1.0
176
     0
 90
        1
176
     0
 90
        6
176
     0
 90
        2
176
     0
 62
     7
176
     0
 90
        5
176
     0
 90
        0
176
     0
 90
        0
176
     0
290
     0
176
     0
 90
        1
176
     0
 40
0.0
176
     0
 90
        0
176
     0
290
     0
176
     0
290
     1
176
     0
290
     1
176
     0
290
     0
176
     0
290
     0
176
     0
290
     0
176
     0
290
     0
176
     0
290
     0
176
     0
290
     0
176
     0
 90
       50
176
     0
 40
0.0
176
     0
 40
1.0
176
     0
 90
        0
176
     0
 62
    18
420
        0
176
     0
 90
       50
176
     0
 90
        3
176
     0
 62
     5
420
      255
176
     0
290
     0
176
     0
 90
       50
176
     0
 90
       50
176
     0
 90
       50
176
     0
290
     0
176
     0
 90
       50
176
     0
 62
   256
176
     0
 40
1.0
176
     0
 90
        2
176
     0
  1
strokes_ogs.tif
176
     0
290
     0
176
     0
 40
1.0
176
     0
 40
1.0
176
     0
1001
ACAD
1000
AcDbSavedByObjectVersion
1070
     0
  0
VISUALSTYLE
  5
38
102
{ACAD_REACTORS
330
29
102
}
330
29
100
AcDbVisualStyle
  2
Facepattern
 70
    15
177
     3
291
     1
 70
    58
 90
        2
176
     1
 90
        2
176
     1
 90
        0
176
     1
 90
        0
176
     1
 40
0.6
176
     1
 40
30.0
176
     1
 62
     7
420
 16777215
176
     1
 90
        1
176
     1
 90
        4
176
     1
 62
     7
176
     1
 62
   257
176
     1
 90
        1
176
     1
 90
        1
176
     1
 40
1.0
176
     1
 90
        8
176
     1
 62
     7
176
     1
 40
1.0
176
     1
 90
        1
176
     1
 90
        6
176
     1
 90
        2
176
     1
 62
     7
176
     1
 90
        5
176
     1
 90
        0
176
     1
 90
        0
176
     1
290
     0
176
     1
 90
        1
176
     1
 40
0.0
176
     1
 90
        0
176
     1
290
     0
176
     1
290
     1
176
     1
290
     1
176
     1
290
     0
176
     1
290
     0
176
     1
290
     0
176
     1
290
     0
176
     1
290
     0
176
     1
290
     0
176
     1
 90
       50
176
     1
 40
0.0
176
     1
 40
1.0
176
     1
 90
        0
176
     1
 62
    18
420
        0
176
     1
 90
       50
176
     1
 90
        3
176
     1
 62
     5
420
      255
176
     1
290
     0
176
     1
 90
       50
176
     1
 90
       50
176
     1
 90
       50
176
     1
290
     0
176
     1
 90
       50
176
     1
 62
   256
176
     0
 40
1.0
176
     0
 90
        2
176
     1
  1
strokes_ogs.tif
176
     1
290
     0
176
     1
 40
1.0
176
     1
 40
1.0
176
     1
1001
ACAD
1000
AcDbSavedByObjectVersion
1070
     0
  0
VISUALSTYLE
  5
2A
102
{ACAD_REACTORS
330
29
102
}
330
29
100
AcDbVisualStyle
  2
Flat
 70
     0
177
     3
291
     1
 70
    58
 90
        2
176
     1
 90
        1
176
     1
 90
        1
176
     1
 90
        2
176
     1
 40
0.6
176
     1
 40
30.0
176
     1
 62
     7
420
 16777215
176
     1
 90
        0
176
     1
 90
        0
176
     1
 62
     7
176
     1
 62
   257
176
     1
 90
        1
176
     1
 90
        1
176
     1
 40
1.0
176
     1
 90
        8
176
     1
 62
     7
176
     1
 40
1.0
176
     1
 90
        1
176
     1
 90
        6
176
     1
 90
        2
176
     1
 62
     7
176
     1
 90
        5
176
     1
 90
        0
176
     1
 90
        0
176
     1
290
     0
176
     1
 90
       13
176
     1
 40
0.0
176
     1
 90
        0
176
     1
290
     0
176
     1
290
     1
176
     1
290
     1
176
     1
290
     0
176
     1
290
     0
176
     1
290
     0
176
     1
290
     0
176
     1
290
     0
176
     1
290
     0
176
     1
 90
       50
176
     1
 40
0.0
176
     1
 40
1.0
176
     1
 90
        0
176
     1
 62
    18
420
        0
176
     1
 90
       50
176
     1
 90
        3
176
     1
 62
     5
420
      255
176
     1
290
     0
176
     1
 90
       50
176
     1
 90
       50
176
     1
 90
       50
176
     1
290
     0
176
     1
 90
       50
176
     1
 62
   256
176
     0
 40
1.0
176
     0
 90
        2
176
     1
  1
strokes_ogs.tif
176
     1
290
     0
176
     1
 40
1.0
176
     1
 40
1.0
176
     1
1001
ACAD
1000
AcDbSavedByObjectVersion
1070
     0
  0
VISUALSTYLE
  5
2B
102
{ACAD_REACTORS
330
29
102
}
330
29
100
AcDbVisualStyle
  2
FlatWithEdges
 70
     1
177
     3
291
     1
 70
    58
 90
        2
176
     1
 90
        1
176
     1
 90
        1
176
     1
 90
        2
176
     1
 40
0.6
176
     1
 40
30.0
176
     1
 62
     7
420
 16777215
176
     1
 90
        1
176
     1
 90
        0
176
     1
 62
     7
176
     1
 62
   257
176
     1
 90
        1
176
     1
 90
        1
176
     1
 40
1.0
176
     1
 90
        0
176
     1
 62
   257
176
     1
 40
1.0
176
     1
 90
        1
176
     1
 90
        6
176
     1
 90
        2
176
     1
 62
     7
176
     1
 90
        5
176
     1
 90
        0
176
     1
 90
        0
176
     1
290
     0
176
     1
 90
       13
176
     1
 40
0.0
176
     1
 90
        0
176
     1
290
     0
176
     1
290
     1
176
     1
290
     1
176
     1
290
     0
176
     1
290
     0
176
     1
290
     0
176
     1
290
     0
176
     1
290
     0
176
     1
290
     0
176
     1
 90
       50
176
     1
 40
0.0
176
     1
 40
1.0
176
     1
 90
        0
176
     1
 62
    18
420
        0
176
     1
 90
       50
176
     1
 90
        3
176
     1
 62
     5
420
      255
176
     1
290
     0
176
     1
 90
       50
176
     1
 90
       50
176
     1
 90
       50
176
     1
290
     0
176
     1
 90
       50
176
     1
 62
   256
176
     0
 40
1.0
176
     0
 90
        2
176
     1
  1
strokes_ogs.tif
176
     1
290
     0
176
     1
 40
1.0
176
     1
 40
1.0
176
     1
1001
ACAD
1000
AcDbSavedByObjectVersion
1070
     0
  0
VISUALSTYLE
  5
2C
102
{ACAD_REACTORS
330
29
102
}
330
29
100
AcDbVisualStyle
  2
Gouraud
 70
     2
177
     3
291
     1
 70
    58
 90
        2
176
     1
 90
        2
176
     1
 90
        1
176
     1
 90
        2
176
     1
 40
0.6
176
     1
 40
30.0
176
     1
 62
     7
420
 16777215
176
     1
 90
        0
176
     1
 90
        0
176
     1
 62
     7
176
     1
 62
   257
176
     1
 90
        1
176
     1
 90
        1
176
     1
 40
1.0
176
     1
 90
        0
176
     1
 62
     7
176
     1
 40
1.0
176
     1
 90
        1
176
     1
 90
        6
176
     1
 90
        2
176
     1
 62
     7
176
     1
 90
        5
176
     1
 90
        0
176
     1
 90
        0
176
     1
290
     0
176
     1
 90
       13
176
     1
 40
0.0
176
     1
 90
        0
176
     1
290
     0
176
     1
290
     1
176
     1
290
     1
176
     1
290
     0
176
     1
290
     0
176
     1
290
     0
176
     1
290
     0
176
     1
290
     0
176
     1
290
     0
176
     1
 90
       50
176
     1
 40
0.0
176
     1
 40
1.0
176
     1
 90
        0
176
     1
 62
    18
420
        0
176
     1
 90
       50
176
     1
 90
        3
176
     1
 62
     5
420
      255
176
     1
290
     0
176
     1
 90
       50
176
     1
 90
       50
176
     1
 90
       50
176
     1
290
     0
176
     1
 90
       50
176
     1
 62
   256
176
     0
 40
1.0
176
     0
 90
        2
176
     1
  1
strokes_ogs.tif
176
     1
290
     0
176
     1
 40
1.0
176
     1
 40
1.0
176
     1
1001
ACAD
1000
AcDbSavedByObjectVersion
1070
     0
  0
VISUALSTYLE
  5
2D
102
{ACAD_REACTORS
330
29
102
}
330
29
100
AcDbVisualStyle
  2
GouraudWithEdges
 70
     3
177
     3
291
     1
 70
    58
 90
        2
176
     1
 90
        2
176
     1
 90
        1
176
     1
 90
        2
176
     1
 40
0.6
176
     1
 40
30.0
176
     1
 62
     7
420
 16777215
176
     1
 90
        1
176
     1
 90
        0
176
     1
 62
     7
176
     1
 62
   257
176
     1
 90
        1
176
     1
 90
        1
176
     1
 40
1.0
176
     1
 90
        0
176
     1
 62
   257
176
     1
 40
1.0
176
     1
 90
        1
176
     1
 90
        6
176
     1
 90
        2
176
     1
 62
     7
176
     1
 90
        5
176
     1
 90
        0
176
     1
 90
        0
176
     1
290
     0
176
     1
 90
       13
176
     1
 40
0.0
176
     1
 90
        0
176
     1
290
     0
176
     1
290
     1
176
     1
290
     1
176
     1
290
     0
176
     1
290
     0
176
     1
290
     0
176
     1
290
     0
176
     1
290
     0
176
     1
290
     0
176
     1
 90
       50
176
     1
 40
0.0
176
     1
 40
1.0
176
     1
 90
        0
176
     1
 62
    18
420
        0
176
     1
 90
       50
176
     1
 90
        3
176
     1
 62
     5
420
      255
176
     1
290
     0
176
     1
 90
       50
176
     1
 90
       50
176
     1
 90
       50
176
     1
290
     0
176
     1
 90
       50
176
     1
 62
   256
176
     0
 40
1.0
176
     0
 90
        2
176
     1
  1
strokes_ogs.tif
176
     1
290
     0
176
     1
 40
1.0
176
     1
 40
1.0
176
     1
1001
ACAD
1000
AcDbSavedByObjectVersion
1070
     0
  0
VISUALSTYLE
  5
31
102
{ACAD_REACTORS
330
29
102
}
330
29
100
AcDbVisualStyle
  2
Hidden
 70
     6
177
     3
291
     0
 70
    58
 90
        1
176
     1
 90
        2
176
     1
 90
        2
176
     1
 90
        0
176
     1
 40
0.6
176
     1
 40
30.0
176
     1
 62
     7
420
 16777215
176
     1
 90
        2
176
     1
 90
        2
176
     1
 62
     7
176
     1
 62
   257
176
     1
 90
        2
176
     1
 90
        1
176
     1
 40
40.0
176
     1
 90
        0
176
     1
 62
   257
176
     1
 40
1.0
176
     1
 90
        1
176
     1
 90
        6
176
     1
 90
        2
176
     1
 62
     7
176
     1
 90
        3
176
     1
 90
        0
176
     1
 90
        0
176
     1
290
     0
176
     1
 90
        1
176
     1
 40
0.0
176
     1
 90
        0
176
     1
290
     0
176
     1
290
     1
176
     1
290
     1
176
     1
290
     0
176
     1
290
     0
176
     1
290
     0
176
     1
290
     0
176
     1
290
     0
176
     1
290
     0
176
     1
 90
       50
176
     1
 40
0.0
176
     1
 40
1.0
176
     1
 90
        0
176
     1
 62
    18
420
        0
176
     1
 90
       50
176
     1
 90
        3
176
     1
 62
     5
420
      255
176
     1
290
     0
176
     1
 90
       50
176
     1
 90
       50
176
     1
 90
       50
176
     1
290
     0
176
     1
 90
       50
176
     1
 62
   256
176
     0
 40
1.0
176
     0
 90
        2
176
     1
  1
strokes_ogs.tif
176
     1
290
     0
176
     1
 40
1.0
176
     1
 40
1.0
176
     1
1001
ACAD
1000
AcDbSavedByObjectVersion
1070
     0
  0
VISUALSTYLE
  5
3F
102
{ACAD_REACTORS
330
29
102
}
330
29
100
AcDbVisualStyle
  2
JitterOff
 70
    20
177
     3
291
     1
 70
    58
 90
        2
176
     0
 90
        2
176
     0
 90
        0
176
     0
 90
        0
176
     0
 40
0.6
176
     0
 40
30.0
176
     0
 62
     7
420
 16777215
176
     0
 90
        1
176
     0
 90
        4
176
     0
 62
     7
176
     0
 62
   257
176
     0
 90
        1
176
     0
 90
        1
176
     0
 40
1.0
176
     0
 90
       10
176
     2
 62
     7
176
     0
 40
1.0
176
     0
 90
        1
176
     0
 90
        6
176
     0
 90
        2
176
     0
 62
     7
176
     0
 90
        5
176
     0
 90
        0
176
     0
 90
        0
176
     0
290
     0
176
     0
 90
        1
176
     0
 40
0.0
176
     0
 90
        0
176
     0
290
     0
176
     0
290
     1
176
     0
290
     1
176
     0
290
     0
176
     0
290
     0
176
     0
290
     0
176
     0
290
     0
176
     0
290
     0
176
     0
290
     0
176
     0
 90
       50
176
     0
 40
0.0
176
     0
 40
1.0
176
     0
 90
        0
176
     0
 62
    18
420
        0
176
     0
 90
       50
176
     0
 90
        3
176
     0
 62
     5
420
      255
176
     0
290
     0
176
     0
 90
       50
176
     0
 90
       50
176
     0
 90
       50
176
     0
290
     0
176
     0
 90
       50
176
     0
 62
   256
176
     0
 40
1.0
176
     0
 90
        2
176
     0
  1
strokes_ogs.tif
176
     0
290
     0
176
     0
 40
1.0
176
     0
 40
1.0
176
     0
1001
ACAD
1000
AcDbSavedByObjectVersion
1070
     0
  0
VISUALSTYLE
  5
37
102
{ACAD_REACTORS
330
29
102
}
330
29
100
AcDbVisualStyle
  2
Linepattern
 70
    14
177
     3
291
     1
 70
    58
 90
        2
176
     1
 90
        2
176
     1
 90
        0
176
     1
 90
        0
176
     1
 40
0.6
176
     1
 40
30.0
176
     1
 62
     7
420
 16777215
176
     1
 90
        1
176
     1
 90
        4
176
     1
 62
     7
176
     1
 62
   257
176
     1
 90
        7
176
     1
 90
        7
176
     1
 40
1.0
176
     1
 90
        8
176
     1
 62
     7
176
     1
 40
1.0
176
     1
 90
        1
176
     1
 90
        6
176
     1
 90
        2
176
     1
 62
     7
176
     1
 90
        5
176
     1
 90
        0
176
     1
 90
        0
176
     1
290
     0
176
     1
 90
        1
176
     1
 40
0.0
176
     1
 90
        0
176
     1
290
     0
176
     1
290
     1
176
     1
290
     1
176
     1
290
     0
176
     1
290
     0
176
     1
290
     0
176
     1
290
     0
176
     1
290
     0
176
     1
290
     0
176
     1
 90
       50
176
     1
 40
0.0
176
     1
 40
1.0
176
     1
 90
        0
176
     1
 62
    18
420
        0
176
     1
 90
       50
176
     1
 90
        3
176
     1
 62
     5
420
      255
176
     1
290
     0
176
     1
 90
       50
176
     1
 90
       50
176
     1
 90
       50
176
     1
290
     0
176
     1
 90
       50
176
     1
 62
   256
176
     0
 40
1.0
176
     0
 90
        2
176
     1
  1
strokes_ogs.tif
176
     1
290
     0
176
     1
 40
1.0
176
     1
 40
1.0
176
     1
1001
ACAD
1000
AcDbSavedByObjectVersion
1070
     0
  0
VISUALSTYLE
  5
40
102
{ACAD_REACTORS
330
29
102
}
330
29
100
AcDbVisualStyle
  2
OverhangOff
 70
    21
177
     3
291
     1
 70
    58
 90
        2
176
     0
 90
        2
176
     0
 90
        0
176
     0
 90
        0
176
     0
 40
0.6
176
     0
 40
30.0
176
     0
 62
     7
420
 16777215
176
     0
 90
        1
176
     0
 90
        4
176
     0
 62
     7
176
     0
 62
   257
176
     0
 90
        1
176
     0
 90
        1
176
     0
 40
1.0
176
     0
 90
        9
176
     2
 62
     7
176
     0
 40
1.0
176
     0
 90
        1
176
     0
 90
        6
176
     0
 90
        2
176
     0
 62
     7
176
     0
 90
        5
176
     0
 90
        0
176
     0
 90
        0
176
     0
290
     0
176
     0
 90
        1
176
     0
 40
0.0
176
     0
 90
        0
176
     0
290
     0
176
     0
290
     1
176
     0
290
     1
176
     0
290
     0
176
     0
290
     0
176
     0
290
     0
176
     0
290
     0
176
     0
290
     0
176
     0
290
     0
176
     0
 90
       50
176
     0
 40
0.0
176
     0
 40
1.0
176
     0
 90
        0
176
     0
 62
    18
420
        0
176
     0
 90
       50
176
     0
 90
        3
176
     0
 62
     5
420
      255
176
     0
290
     0
176
     0
 90
       50
176
     0
 90
       50
176
     0
 90
       50
176
     0
290
     0
176
     0
 90
       50
176
     0
 62
   256
176
     0
 40
1.0
176
     0
 90
        2
176
     0
  1
strokes_ogs.tif
176
     0
290
     0
176
     0
 40
1.0
176
     0
 40
1.0
176
     0
1001
ACAD
1000
AcDbSavedByObjectVersion
1070
     0
  0
VISUALSTYLE
  5
33
102
{ACAD_REACTORS
330
29
102
}
330
29
100
AcDbVisualStyle
  2
Realistic
 70
     8
177
     3
291
     0
 70
    58
 90
        2
176
     1
 90
        3
176
     1
 90
        0
176
     1
 90
        2
176
     1
 40
0.6
176
     1
 40
30.0
176
     1
 62
     7
420
 16777215
176
     1
 90
        0
176
     1
 90
        0
176
     1
 62
     7
176
     1
 62
   257
176
     1
 90
        1
176
     1
 90
        1
176
     1
 40
1.0
176
     1
 90
        8
176
     1
 62
   257
176
     1
 40
1.0
176
     1
 90
        1
176
     1
 90
        6
176
     1
 90
        2
176
     1
 62
     7
176
     1
 90
        3
176
     1
 90
        0
176
     1
 90
        0
176
     1
290
     0
176
     1
 90
       13
176
     1
 40
0.0
176
     1
 90
        0
176
     1
290
     0
176
     1
290
     1
176
     1
290
     1
176
     1
290
     0
176
     1
290
     0
176
     1
290
     0
176
     1
290
     0
176
     1
290
     0
176
     1
290
     0
176
     1
 90
       50
176
     1
 40
0.0
176
     1
 40
1.0
176
     1
 90
        0
176
     1
 62
    18
420
        0
176
     1
 90
       50
176
     1
 90
        3
176
     1
 62
     5
420
      255
176
     1
290
     0
176
     1
 90
       50
176
     1
 90
       50
176
     1
 90
       50
176
     1
290
     0
176
     1
 90
       50
176
     1
 62
   256
176
     0
 40
1.0
176
     0
 90
        2
176
     1
  1
strokes_ogs.tif
176
     1
290
     0
176
     1
 40
1.0
176
     1
 40
1.0
176
     1
1001
ACAD
1000
AcDbSavedByObjectVersion
1070
     0
  0
VISUALSTYLE
  5
3E
102
{ACAD_REACTORS
330
29
102
}
330
29
100
AcDbVisualStyle
  2
Shaded
 70
    27
177
     3
291
     0
 70
    58
 90
        2
176
     1
 90
        2
176
     1
 90
        1
176
     1
 90
        2
176
     1
 40
0.6
176
     1
 40
30.0
176
     1
 62
     7
420
 16777215
176
     1
 90
        0
176
     1
 90
        4
176
     1
 62
     7
176
     1
 62
   257
176
     1
 90
        1
176
     1
 90
        1
176
     1
 40
1.0
176
     1
 90
        8
176
     1
 62
   257
176
     1
 40
1.0
176
     1
 90
        1
176
     1
 90
        6
176
     1
 90
        2
176
     1
 62
     8
420
  7895160
176
     1
 90
        3
176
     1
 90
        0
176
     1
 90
        0
176
     1
290
     0
176
     1
 90
        5
176
     1
 40
0.0
176
     1
 90
        0
176
     1
290
     0
176
     1
290
     1
176
     1
290
     1
176
     1
290
     0
176
     1
290
     0
176
     1
290
     0
176
     1
290
     0
176
     1
290
     0
176
     1
290
     0
176
     1
 90
       50
176
     1
 40
0.0
176
     1
 40
1.0
176
     1
 90
        0
176
     1
 62
    18
420
        0
176
     1
 90
       50
176
     1
 90
        3
176
     1
 62
     5
420
      255
176
     1
290
     0
176
     1
 90
       50
176
     1
 90
       50
176
     1
 90
       50
176
     1
290
     0
176
     1
 90
       50
176
     1
 62
   256
176
     0
 40
1.0
176
     0
 90
        2
176
     1
  1
strokes_ogs.tif
176
     1
290
     0
176
     1
 40
1.0
176
     1
 40
1.0
176
     1
1001
ACAD
1000
AcDbSavedByObjectVersion
1070
     0
  0
VISUALSTYLE
  5
3D
102
{ACAD_REACTORS
330
29
102
}
330
29
100
AcDbVisualStyle
  2
Shaded with edges
 70
    26
177
     3
291
     0
 70
    58
 90
        2
176
     1
 90
        2
176
     1
 90
        1
176
     1
 90
        2
176
     1
 40
0.6
176
     1
 40
30.0
176
     1
 62
     7
420
 16777215
176
     1
 90
        1
176
     1
 90
        2
176
     1
 62
     7
176
     1
 62
   257
176
     1
 90
        2
176
     1
 90
        1
176
     1
 40
1.0
176
     1
 90
        8
176
     1
 62
   257
176
     1
 40
1.0
176
     1
 90
        1
176
     1
 90
        6
176
     1
 90
        2
176
     1
 62
     7
176
     1
 90
        3
176
     1
 90
        0
176
     1
 90
        0
176
     1
290
     0
176
     1
 90
        5
176
     1
 40
0.0
176
     1
 90
        0
176
     1
290
     0
176
     1
290
     1
176
     1
290
     1
176
     1
290
     0
176
     1
290
     0
176
     1
290
     0
176
     1
290
     0
176
     1
290
     0
176
     1
290
     0
176
     1
 90
       50
176
     1
 40
0.0
176
     1
 40
1.0
176
     1
 90
        0
176
     1
 62
    18
420
        0
176
     1
 90
       50
176
     1
 90
        3
176
     1
 62
     5
420
      255
176
     1
290
     0
176
     1
 90
       50
176
     1
 90
       50
176
     1
 90
       50
176
     1
290
     0
176
     1
 90
       50
176
     1
 62
   256
176
     0
 40
1.0
176
     0
 90
        2
176
     1
  1
strokes_ogs.tif
176
     1
290
     0
176
     1
 40
1.0
176
     1
 40
1.0
176
     1
1001
ACAD
1000
AcDbSavedByObjectVersion
1070
     0
  0
VISUALSTYLE
  5
3A
102
{ACAD_REACTORS
330
29
102
}
330
29
100
AcDbVisualStyle
  2
Shades of Gray
 70
    23
177
     3
291
     0
 70
    58
 90
        2
176
     1
 90
        2
176
     1
 90
        3
176
     1
 90
        0
176
     1
 40
0.6
176
     1
 40
30.0
176
     1
 62
     7
420
 16777215
176
     1
 90
        2
176
     1
 90
        2
176
     1
 62
     7
176
     1
 62
     7
176
     1
 90
        1
176
     1
 90
        1
176
     1
 40
40.0
176
     1
 90
        8
176
     1
 62
     7
176
     1
 40
1.0
176
     1
 90
        1
176
     1
 90
        6
176
     1
 90
        2
176
     1
 62
     7
176
     1
 90
        3
176
     1
 90
        0
176
     1
 90
        0
176
     1
290
     0
176
     1
 90
        1
176
     1
 40
0.0
176
     1
 90
        0
176
     1
290
     0
176
     1
290
     1
176
     1
290
     1
176
     1
290
     0
176
     1
290
     0
176
     1
290
     0
176
     1
290
     0
176
     1
290
     0
176
     1
290
     0
176
     1
 90
       50
176
     1
 40
0.0
176
     1
 40
1.0
176
     1
 90
        0
176
     1
 62
    18
420
        0
176
     1
 90
       50
176
     1
 90
        3
176
     1
 62
     5
420
      255
176
     1
290
     0
176
     1
 90
       50
176
     1
 90
       50
176
     1
 90
       50
176
     1
290
     0
176
     1
 90
       50
176
     1
 62
   256
176
     0
 40
1.0
176
     0
 90
        2
176
     1
  1
strokes_ogs.tif
176
     1
290
     0
176
     1
 40
1.0
176
     1
 40
1.0
176
     1
1001
ACAD
1000
AcDbSavedByObjectVersion
1070
     0
  0
VISUALSTYLE
  5
3B
102
{ACAD_REACTORS
330
29
102
}
330
29
100
AcDbVisualStyle
  2
Sketchy
 70
    24
177
     3
291
     0
 70
    58
 90
        1
176
     1
 90
        2
176
     1
 90
        2
176
     1
 90
        0
176
     1
 40
0.6
176
     1
 40
30.0
176
     1
 62
     7
420
 16777215
176
     1
 90
        2
176
     1
 90
        2
176
     1
 62
     7
176
     1
 62
     7
176
     1
 90
        1
176
     1
 90
        1
176
     1
 40
40.0
176
     1
 90
       11
176
     1
 62
     7
176
     1
 40
1.0
176
     1
 90
        1
176
     1
 90
        6
176
     1
 90
        2
176
     1
 62
     7
176
     1
 90
        6
176
     1
 90
        0
176
     1
 90
        0
176
     1
290
     0
176
     1
 90
        1
176
     1
 40
0.0
176
     1
 90
        0
176
     1
290
     0
176
     1
290
     1
176
     1
290
     1
176
     1
290
     0
176
     1
290
     0
176
     1
290
     0
176
     1
290
     0
176
     1
290
     0
176
     1
290
     0
176
     1
 90
       50
176
     1
 40
0.0
176
     1
 40
1.0
176
     1
 90
        0
176
     1
 62
    18
420
        0
176
     1
 90
       50
176
     1
 90
        3
176
     1
 62
     5
420
      255
176
     1
290
     0
176
     1
 90
       50
176
     1
 90
       50
176
     1
 90
       50
176
     1
290
     0
176
     1
 90
       50
176
     1
 62
   256
176
     0
 40
1.0
176
     0
 90
        2
176
     1
  1
strokes_ogs.tif
176
     1
290
     0
176
     1
 40
1.0
176
     1
 40
1.0
176
     1
1001
ACAD
1000
AcDbSavedByObjectVersion
1070
     0
  0
VISUALSTYLE
  5
36
102
{ACAD_REACTORS
330
29
102
}
330
29
100
AcDbVisualStyle
  2
Thicken
 70
    13
177
     3
291
     1
 70
    58
 90
        2
176
     1
 90
        2
176
     1
 90
        0
176
     1
 90
        0
176
     1
 40
0.6
176
     1
 40
30.0
176
     1
 62
     7
420
 16777215
176
     1
 90
        1
176
     1
 90
        4
176
     1
 62
     7
176
     1
 62
   257
176
     1
 90
        1
176
     1
 90
        1
176
     1
 40
1.0
176
     1
 90
       12
176
     1
 62
     7
176
     1
 40
1.0
176
     1
 90
        1
176
     1
 90
        6
176
     1
 90
        2
176
     1
 62
     7
176
     1
 90
        5
176
     1
 90
        0
176
     1
 90
        0
176
     1
290
     0
176
     1
 90
        1
176
     1
 40
0.0
176
     1
 90
        0
176
     1
290
     0
176
     1
290
     1
176
     1
290
     1
176
     1
290
     0
176
     1
290
     0
176
     1
290
     0
176
     1
290
     0
176
     1
290
     0
176
     1
290
     0
176
     1
 90
       50
176
     1
 40
0.0
176
     1
 40
1.0
176
     1
 90
        0
176
     1
 62
    18
420
        0
176
     1
 90
       50
176
     1
 90
        3
176
     1
 62
     5
420
      255
176
     1
290
     0
176
     1
 90
       50
176
     1
 90
       50
176
     1
 90
       50
176
     1
290
     0
176
     1
 90
       50
176
     1
 62
   256
176
     0
 40
1.0
176
     0
 90
        2
176
     1
  1
strokes_ogs.tif
176
     1
290
     0
176
     1
 40
1.0
176
     1
 40
1.0
176
     1
1001
ACAD
1000
AcDbSavedByObjectVersion
1070
     0
  0
VISUALSTYLE
  5
30
102
{ACAD_REACTORS
330
29
102
}
330
29
100
AcDbVisualStyle
  2
Wireframe
 70
     5
177
     3
291
     0
 70
    58
 90
        0
176
     1
 90
        2
176
     1
 90
        0
176
     1
 90
        0
176
     1
 40
0.6
176
     1
 40
30.0
176
     1
 62
     7
420
 16777215
176
     1
 90
        1
176
     1
 90
        4
176
     1
 62
     7
176
     1
 62
   257
176
     1
 90
        1
176
     1
 90
        1
176
     1
 40
1.0
176
     1
 90
        0
176
     1
 62
   257
176
     1
 40
1.0
176
     1
 90
        1
176
     1
 90
        6
176
     1
 90
        2
176
     1
 62
     7
176
     1
 90
        3
176
     1
 90
        0
176
     1
 90
        0
176
     1
290
     0
176
     1
 90
        1
176
     1
 40
0.0
176
     1
 90
        0
176
     1
290
     0
176
     1
290
     1
176
     1
290
     1
176
     1
290
     0
176
     1
290
     0
176
     1
290
     0
176
     1
290
     0
176
     1
290
     0
176
     1
290
     0
176
     1
 90
       50
176
     1
 40
0.0
176
     1
 40
1.0
176
     1
 90
        0
176
     1
 62
    18
420
        0
176
     1
 90
       50
176
     1
 90
        3
176
     1
 62
     5
420
      255
176
     1
290
     0
176
     1
 90
       50
176
     1
 90
       50
176
     1
 90
       50
176
     1
290
     0
176
     1
 90
       50
176
     1
 62
   256
176
     0
 40
1.0
176
     0
 90
        2
176
     1
  1
strokes_ogs.tif
176
     1
290
     0
176
     1
 40
1.0
176
     1
 40
1.0
176
     1
1001
ACAD
1000
AcDbSavedByObjectVersion
1070
     0
  0
VISUALSTYLE
  5
3C
102
{ACAD_REACTORS
330
29
102
}
330
29
100
AcDbVisualStyle
  2
X-Ray
 70
    25
177
     3
291
     0
 70
    58
 90
        2
176
     1
 90
        2
176
     1
 90
        1
176
     1
 90
        1
176
     1
 40
0.5
176
     1
 40
30.0
176
     1
 62
     7
420
 16777215
176
     1
 90
        1
176
     1
 90
        0
176
     1
 62
     7
176
     1
 62
   257
176
     1
 90
        1
176
     1
 90
        1
176
     1
 40
1.0
176
     1
 90
        8
176
     1
 62
     7
176
     1
 40
1.0
176
     1
 90
        1
176
     1
 90
        6
176
     1
 90
        2
176
     1
 62
     7
176
     1
 90
        3
176
     1
 90
        0
176
     1
 90
        0
176
     1
290
     0
176
     1
 90
       13
176
     1
 40
0.0
176
     1
 90
        0
176
     1
290
     0
176
     1
290
     1
176
     1
290
     1
176
     1
290
     0
176
     1
290
     0
176
     1
290
     0
176
     1
290
     0
176
     1
290
     0
176
     1
290
     0
176
     1
 90
       50
176
     1
 40
0.0
176
     1
 40
1.0
176
     1
 90
        0
176
     1
 62
    18
420
        0
176
     1
 90
       50
176
     1
 90
        3
176
     1
 62
     5
420
      255
176
     1
290
     0
176
     1
 90
       50
176
     1
 90
       50
176
     1
 90
       50
176
     1
290
     0
176
     1
 90
       50
176
     1
 62
   256
176
     0
 40
1.0
176
     0
 90
        2
176
     1
  1
strokes_ogs.tif
176
     1
290
     0
176
     1
 40
1.0
176
     1
 40
1.0
176
     1
1001
ACAD
1000
AcDbSavedByObjectVersion
1070
     0
  0
DICTIONARYVAR
  5
10F
102
{ACAD_REACTORS
330
10A
102
}
330
10A
100
DictionaryVariables
280
     0
  1
1:1
  0
DICTIONARYVAR
  5
10C
102
{ACAD_REACTORS
330
10A
102
}
330
10A
100
DictionaryVariables
280
     0
  1
STANDARD
  0
DICTIONARYVAR
  5
10B
102
{ACAD_REACTORS
330
10A
102
}
330
10A
100
DictionaryVariables
280
     0
  1
STANDARD
  0
DICTIONARYVAR
  5
10D
102
{ACAD_REACTORS
330
10A
102
}
330
10A
100
DictionaryVariables
280
     0
  1
Imperial24
  0
DICTIONARYVAR
  5
10E
102
{ACAD_REACTORS
330
10A
102
}
330
10A
100
DictionaryVariables
280
     0
  1
Imperial24
  0
DICTIONARY
  5
115
330
6B
100
AcDbDictionary
280
     1
281
     1
  3
ACAD_XREC_ROUNDTRIP
360
116
  0
DICTIONARY
  5
1A
330
19
100
AcDbDictionary
280
     1
281
     1
  3
BUMPTILE
360
1C
  3
DIFFUSETILE
360
1B
  3
OPACITYTILE
360
1F
  3
REFLECTIONTILE
360
1E
  3
REFRACTIONTILE
360
20
  3
SPECULARTILE
360
1D
  0
DICTIONARY
  5
12
330
11
100
AcDbDictionary
280
     1
281
     1
  3
BUMPTILE
360
14
  3
DIFFUSETILE
360
13
  3
OPACITYTILE
360
17
  3
REFLECTIONTILE
360
16
  3
REFRACTIONTILE
360
18
  3
SPECULARTILE
360
15
  0
DICTIONARY
  5
22
330
21
100
AcDbDictionary
280
     1
281
     1
  3
BUMPTILE
360
24
  3
DIFFUSETILE
360
23
  3
OPACITYTILE
360
27
  3
REFLECTIONTILE
360
26
  3
REFRACTIONTILE
360
28
  3
SPECULARTILE
360
25
  0
DICTIONARY
  5
113
330
69
100
AcDbDictionary
280
     1
281
     1
  3
ACAD_XREC_ROUNDTRIP
360
114
  0
DICTIONARY
  5
110
330
65
100
AcDbDictionary
280
     1
281
     1
  3
ACAD_ROUNDTRIP_2008_TABLESTYLE_CELLSTYLEMAP
360
111
  0
XRECORD
  5
116
102
{ACAD_REACTORS
330
115
102
}
330
115
100
AcDbXrecord
280
     1
102
DISPLAYNAME
  1
Imperial24
102
FLAGS
 90
        0
  0
XRECORD
  5
1C
102
{ACAD_REACTORS
330
1A
102
}
330
1A
100
AcDbXrecord
280
     1
270
     1
271
     1
  0
XRECORD
  5
1B
102
{ACAD_REACTORS
330
1A
102
}
330
1A
100
AcDbXrecord
280
     1
270
     1
271
     1
  0
XRECORD
  5
1F
102
{ACAD_REACTORS
330
1A
102
}
330
1A
100
AcDbXrecord
280
     1
270
     1
271
     1
  0
XRECORD
  5
1E
102
{ACAD_REACTORS
330
1A
102
}
330
1A
100
AcDbXrecord
280
     1
270
     1
271
     1
  0
XRECORD
  5
20
102
{ACAD_REACTORS
330
1A
102
}
330
1A
100
AcDbXrecord
280
     1
270
     1
271
     1
  0
XRECORD
  5
1D
102
{ACAD_REACTORS
330
1A
102
}
330
1A
100
AcDbXrecord
280
     1
270
     1
271
     1
  0
XRECORD
  5
14
102
{ACAD_REACTORS
330
12
102
}
330
12
100
AcDbXrecord
280
     1
270
     1
271
     1
  0
XRECORD
  5
13
102
{ACAD_REACTORS
330
12
102
}
330
12
100
AcDbXrecord
280
     1
270
     1
271
     1
  0
XRECORD
  5
17
102
{ACAD_REACTORS
330
12
102
}
330
12
100
AcDbXrecord
280
     1
270
     1
271
     1
  0
XRECORD
  5
16
102
{ACAD_REACTORS
330
12
102
}
330
12
100
AcDbXrecord
280
     1
270
     1
271
     1
  0
XRECORD
  5
18
102
{ACAD_REACTORS
330
12
102
}
330
12
100
AcDbXrecord
280
     1
270
     1
271
     1
  0
XRECORD
  5
15
102
{ACAD_REACTORS
330
12
102
}
330
12
100
AcDbXrecord
280
     1
270
     1
271
     1
  0
XRECORD
  5
24
102
{ACAD_REACTORS
330
22
102
}
330
22
100
AcDbXrecord
280
     1
270
     1
271
     1
  0
XRECORD
  5
23
102
{ACAD_REACTORS
330
22
102
}
330
22
100
AcDbXrecord
280
     1
270
     1
271
     1
  0
XRECORD
  5
27
102
{ACAD_REACTORS
330
22
102
}
330
22
100
AcDbXrecord
280
     1
270
     1
271
     1
  0
XRECORD
  5
26
102
{ACAD_REACTORS
330
22
102
}
330
22
100
AcDbXrecord
280
     1
270
     1
271
     1
  0
XRECORD
  5
28
102
{ACAD_REACTORS
330
22
102
}
330
22
100
AcDbXrecord
280
     1
270
     1
271
     1
  0
XRECORD
  5
25
102
{ACAD_REACTORS
330
22
102
}
330
22
100
AcDbXrecord
280
     1
270
     1
271
     1
  0
XRECORD
  5
114
102
{ACAD_REACTORS
330
113
102
}
330
113
100
AcDbXrecord
280
     1
102
DISPLAYNAME
  1
Imperial24
102
FLAGS
 90
        0
  0
CELLSTYLEMAP
  5
111
102
{ACAD_REACTORS
330
110
102
}
330
110
100
AcDbCellStyleMap
 90
        3
300
CELLSTYLE
  1
TABLEFORMAT_BEGIN
 90
        5
170
     1
 91
        0
 92
    32768
 62
   257
 93
        1
300
CONTENTFORMAT
  1
CONTENTFORMAT_BEGIN
 90
        0
 91
        0
 92
      512
 93
        0
300

 40
0.0
140
1.0
 94
        5
 62
     0
340
55
144
0.25
309
CONTENTFORMAT_END
171
     0
 94
        0
309
TABLEFORMAT_END
  1
CELLSTYLE_BEGIN
 90
        1
 91
        1
300
_TITLE
309
CELLSTYLE_END
300
CELLSTYLE
  1
TABLEFORMAT_BEGIN
 90
        5
170
     1
 91
        0
 92
        0
 62
   257
 93
        1
300
CONTENTFORMAT
  1
CONTENTFORMAT_BEGIN
 90
        0
 91
        0
 92
      512
 93
        0
300

 40
0.0
140
1.0
 94
        5
 62
     0
340
55
144
0.18
309
CONTENTFORMAT_END
171
     0
 94
        0
309
TABLEFORMAT_END
  1
CELLSTYLE_BEGIN
 90
        2
 91
        1
300
_HEADER
309
CELLSTYLE_END
300
CELLSTYLE
  1
TABLEFORMAT_BEGIN
 90
        5
170
     1
 91
        0
 92
        0
 62
   257
 93
        1
300
CONTENTFORMAT
  1
CONTENTFORMAT_BEGIN
 90
        0
 91
        0
 92
      512
 93
        0
300

 40
0.0
140
1.0
 94
        2
 62
     0
340
55
144
0.18
309
CONTENTFORMAT_END
171
     0
 94
        0
309
TABLEFORMAT_END
  1
CELLSTYLE_BEGIN
 90
        3
 91
        2
300
_DATA
309
CELLSTYLE_END
  0
ENDSEC
  0
EOF
